<svg width="141" height="112" viewBox="0 0 141 112" fill="none" xmlns="http://www.w3.org/2000/svg">
<path d="M70.7093 10.7855C68.5292 5.3421 63.218 -0.536748 53.2707 0.270845C40.5993 1.64836 36.6505 13.7918 38.5658 21.0362C33.5189 17.6188 24.9375 16.1162 17.4473 22.5322C7.7761 32.2267 12.9491 45.3374 18.2656 48.4822C12.4063 47.9398 3.14586 51.8989 1.09724 62.2557C-1.08208 75.1146 8.72039 82.6108 18.2656 82.6108H124.111C135.149 82.6108 141.273 73.062 140.586 64.0565C139.503 52.3036 128.748 47.7943 122.882 48.7605C127.783 46.0259 134.329 33.1802 124.375 23.0816C116.474 15.566 106.402 18.3007 102.86 21.5786C104.769 15.3002 101.638 2.32205 88.8232 0.269447C87.9371 0.170269 87.0842 0.117188 86.2715 0.117188C76.4888 0.118584 72.0898 7.26978 70.7093 10.7855Z" fill="white"/>
<path d="M19.2108 24.5782C13.6228 29.6368 11.5889 41.0992 21.6626 47.7998L61.8508 75.3719L42.3648 30.7292C38.2816 20.1946 27.111 17.8973 19.2108 24.5782Z" fill="#F37021"/>
<path d="M53.806 2.87125C47.2734 3.00435 37.464 10.7835 41.8294 22.6626L61.9833 70.1934L69.0653 20.2001C70.704 7.77787 61.3032 2.0435 53.806 2.87125Z" fill="#CC004C"/>
<path d="M72.2088 18.2967H76.0197C76.0197 18.2967 78.0547 18.2967 78.3317 19.2568C76.8321 20.4814 72.7502 20.6349 73.2922 27.1765L79.6985 70.19L99.7147 22.5344C103.809 11.8939 95.2151 3.00734 87.592 2.73575C87.236 2.71021 86.8786 2.68945 86.5086 2.68945C79.6665 2.68925 71.8257 7.66193 72.2088 18.2967Z" fill="#6460AA"/>
<path d="M98.9096 31.1331L79.9775 75.2402L120.154 47.5226C129.415 40.9537 127.922 30.4516 122.737 25.2604C120.564 22.8171 116.574 20.9297 112.347 20.9297C107.352 20.9287 102.008 23.5776 98.9096 31.1331Z" fill="#0089D0"/>
<path d="M115.655 53.7991L77.9248 80.1536H124.382C133.913 80.1536 140.038 70.3264 137.316 61.3081C135.492 55.6396 130.096 51.19 123.834 51.1836C121.198 51.1846 118.402 51.9786 115.655 53.7991Z" fill="#0DB14B"/>
<path d="M18.1285 80.1551H63.9003L26.1601 53.8007C17.4412 48.1988 7.63757 51.4767 4.09829 60.7729C1.0982 71.4145 8.58884 80.1551 18.1285 80.1551Z" fill="#FCB711"/>
<path d="M0.938477 99.2252C0.938477 103.714 4.60767 111.883 18.6179 111.883C31.535 111.883 35.6147 105.956 35.6147 103.239H25.6145C25.6145 103.239 25.1395 106.829 19.4984 106.829C13.8536 106.829 12.327 102.117 12.327 99.393C12.327 96.6789 13.8536 92.2216 19.4984 92.2216C25.1395 92.2216 25.6145 95.3476 25.6145 95.3476H35.6147C35.6147 92.6267 32.6214 86.7832 18.6179 86.7832C4.60767 86.7832 0.938477 95.4841 0.938477 99.2252Z" fill="#292526"/>
<path d="M105.814 99.2252C105.814 103.714 109.487 111.883 123.494 111.883C136.41 111.883 140.491 105.956 140.491 103.239H130.498C130.498 103.239 130.021 106.829 124.378 106.829C118.733 106.829 117.205 102.117 117.205 99.393C117.205 96.6789 118.733 92.2216 124.378 92.2216C130.021 92.2216 130.498 95.3476 130.498 95.3476H140.491C140.491 92.6267 137.501 86.7832 123.494 86.7832C109.488 86.7832 105.814 95.4841 105.814 99.2252Z" fill="#292526"/>
<path d="M62.9449 87.2031V102.397L51.3067 87.2031H38.2148V111.269H47.1902V95.9007L58.6246 111.269H71.9208V87.2031H62.9449Z" fill="#292526"/>
<path d="M91.7064 105.52V105.552H84.2279V101.133H91.7064V101.147C93.3032 101.147 94.5937 102.129 94.5937 103.337C94.5937 104.543 93.3032 105.52 91.7064 105.52ZM84.2965 91.8839H91.5024V91.894C92.7233 91.894 93.7133 92.6972 93.7133 93.6858C93.7133 94.6782 92.7233 95.4744 91.5024 95.4744V95.4852H84.2965V91.8839ZM99.0513 98.4749C100.685 98.4749 104.102 96.5781 104.102 92.9036C104.102 87.6711 94.358 87.2031 92.8634 87.2031H74.9111V111.269H92.8634C101.498 111.269 104.966 108.542 104.966 103.987C104.966 99.4318 99.0513 98.4749 99.0513 98.4749Z" fill="#292526"/>
</svg>
