<svg width="44" height="44" viewBox="0 0 44 44" fill="none" xmlns="http://www.w3.org/2000/svg">
<circle cx="21.583" cy="21.9033" r="21.583" fill="#00A139"/>
<path d="M18.0898 21.8183C18.9985 21.7868 19.8582 21.3988 20.4828 20.7381C21.1074 20.0774 21.4467 19.1972 21.4271 18.2882C21.4465 17.8315 21.3754 17.3754 21.218 16.9463C21.0605 16.5171 20.8198 16.1232 20.5097 15.7874C20.1996 15.4515 19.8262 15.1802 19.4109 14.9891C18.9956 14.798 18.5466 14.6909 18.0898 14.6738C17.632 14.6893 17.1817 14.7953 16.765 14.9858C16.3483 15.1762 15.9735 15.4472 15.6621 15.7832C15.3507 16.1193 15.109 16.5136 14.9508 16.9436C14.7926 17.3735 14.7211 17.8305 14.7405 18.2882C14.7241 19.1984 15.0661 20.0785 15.6926 20.7388C16.3191 21.3992 17.1801 21.7869 18.0898 21.8183ZM18.0898 16.1919C18.3485 16.2071 18.6015 16.2737 18.8341 16.3878C19.0668 16.5018 19.2744 16.6611 19.4449 16.8562C19.6153 17.0514 19.7452 17.2785 19.827 17.5243C19.9088 17.7702 19.9408 18.0299 19.9211 18.2882C19.9379 18.7972 19.7563 19.2928 19.4146 19.6704C19.0729 20.0481 18.5979 20.2782 18.0898 20.3123C17.5817 20.2782 17.1067 20.0481 16.765 19.6704C16.4234 19.2928 16.2417 18.7972 16.2585 18.2882C16.2389 18.0299 16.2709 17.7702 16.3526 17.5243C16.4344 17.2785 16.5643 17.0514 16.7348 16.8562C16.9052 16.6611 17.1128 16.5018 17.3455 16.3878C17.5781 16.2737 17.8312 16.2071 18.0898 16.1919ZM26.7524 22.2761C27.5119 22.2479 28.2295 21.9204 28.7486 21.3652C29.2677 20.81 29.5462 20.0721 29.5234 19.3123C29.5494 18.5505 29.2724 17.8095 28.7529 17.2517C28.2335 16.6938 27.5141 16.3647 26.7524 16.3365C25.9928 16.3678 25.2764 16.6983 24.7596 17.2558C24.2427 17.8133 23.9673 18.5525 23.9934 19.3123C23.9705 20.0701 24.2474 20.8062 24.7639 21.3611C25.2804 21.916 25.9949 22.2448 26.7524 22.2761ZM26.7524 17.8425C27.1136 17.8732 27.4484 18.0444 27.6849 18.3192C27.9214 18.594 28.0408 18.9505 28.0174 19.3123C28.0375 19.6721 27.9167 20.0256 27.6805 20.2978C27.4443 20.5699 27.1114 20.7394 26.7524 20.7701C26.3912 20.7423 26.0552 20.5742 25.8165 20.3017C25.5778 20.0292 25.4553 19.674 25.4753 19.3123C25.452 18.9486 25.573 18.5904 25.8121 18.3152C26.0511 18.0401 26.389 17.8702 26.7524 17.8425ZM26.668 23.7822C25.953 23.7798 25.2471 23.9428 24.6055 24.2584C23.9638 24.5739 23.4039 25.0336 22.9693 25.6014C22.3758 24.8836 21.6301 24.3069 20.7861 23.9131C19.9422 23.5192 19.0211 23.3181 18.0898 23.3243C16.5083 23.2917 14.9774 23.8824 13.8277 24.9689C12.6781 26.0555 12.0019 27.5506 11.9453 29.1315H13.4513C13.4984 27.9468 14.0129 26.8291 14.8823 26.0229C15.7516 25.2168 16.905 24.788 18.0898 24.8303C19.2735 24.788 20.4255 25.2172 21.293 26.0237C22.1604 26.8301 22.6723 27.9479 22.7163 29.1315H24.2223C24.2259 28.4343 24.095 27.743 23.8367 27.0954C24.081 26.5509 24.4792 26.0897 24.9823 25.7686C25.4853 25.4475 26.0713 25.2805 26.668 25.2882C27.4438 25.2588 28.1997 25.5374 28.7708 26.0634C29.3419 26.5893 29.6817 27.3198 29.7162 28.0953V29.1315H31.2222V28.0953C31.1875 26.9204 30.6889 25.807 29.8354 24.9987C28.982 24.1904 27.8431 23.753 26.668 23.7822Z" fill="white"/>
</svg>
