<svg width="15" height="15" viewBox="0 0 15 15" fill="none" xmlns="http://www.w3.org/2000/svg">
<path d="M7.14719 13.8273C10.8026 13.8273 13.7659 10.864 13.7659 7.20859C13.7659 3.55316 10.8026 0.589844 7.14719 0.589844C3.49176 0.589844 0.528442 3.55316 0.528442 7.20859C0.528442 10.864 3.49176 13.8273 7.14719 13.8273Z" fill="#699635"/>
<path d="M7.08109 6.03913C7.05903 5.84056 7.16934 5.642 7.3679 5.68613C7.52234 5.70819 7.69884 5.86263 7.61059 6.01706C7.47821 6.25975 7.12521 6.25975 6.90459 6.39212C6.92665 6.5245 7.56646 6.37006 7.67678 6.37006C7.78709 6.37006 7.8974 6.41419 7.83121 6.54656C7.76503 6.67894 7.5444 6.67894 7.41203 6.701C7.27965 6.72306 7.05903 6.72306 6.99284 6.83337C6.86046 7.00987 7.12521 7.03194 7.21346 7.07606C7.43409 7.18637 7.08109 7.29669 6.99284 7.27462C6.6619 7.20844 6.59571 7.03194 6.39715 6.81131C6.19859 7.07606 5.58084 7.67175 5.44846 7.054C5.22784 7.14225 5.00721 7.25256 4.76453 7.27462C4.87484 7.12019 5.09546 7.054 5.27196 6.96575C5.49259 6.85544 5.49259 6.65688 5.62496 6.48038C5.66909 6.54656 5.62496 6.63481 5.64703 6.72306C5.82353 6.63481 6.04415 6.45831 5.9559 6.23769C5.9559 6.21563 5.69115 5.68612 5.91178 5.77437C6.11034 5.86263 6.04415 6.06119 6.08828 6.21562C6.15446 6.50244 6.02209 6.65687 5.80146 6.83337C5.71321 6.89956 5.47053 7.16431 5.75734 7.16431C5.9559 7.16431 6.1324 6.94369 6.24271 6.81131C6.37509 6.63481 6.33096 6.45831 6.24271 6.25975C6.17653 6.10531 6.02209 5.77437 6.22065 5.66406C6.37509 5.90675 6.44128 6.19356 6.50746 6.48038C6.55159 6.72306 6.59571 6.96575 6.86046 7.03194C6.8384 6.85544 6.94871 6.72306 7.10315 6.65688C6.99284 6.56862 6.37509 6.67894 6.61778 6.348C6.63984 6.19356 7.08109 6.12738 7.08109 6.03913Z" fill="white"/>
<path d="M3.70552 6.85411C3.81583 7.16299 4.1909 7.05268 4.41152 6.96442C4.76452 6.78793 4.76452 6.52317 4.76452 6.17017C4.63215 6.23636 4.65421 6.47905 4.61008 6.58936C4.52183 6.76586 4.23502 6.9203 4.03646 6.89824C3.74965 6.85411 3.61727 6.36874 3.8379 6.19224C3.88202 6.34667 3.77171 6.67761 4.03646 6.69968C4.23502 6.72174 4.63215 6.47905 4.56596 6.25843C4.30121 6.34668 4.14677 6.25842 4.23502 5.97161C4.30121 5.70686 4.56596 5.90543 4.67627 6.0378C5.09546 5.79511 4.34533 4.86849 4.78658 4.6258C4.87483 4.78024 5.00721 4.9788 4.8969 5.13324C4.76452 5.30974 4.8969 5.6848 4.91896 5.88336C5.13958 5.6848 4.96308 6.0378 5.13958 6.05986C5.2499 6.08192 5.29402 5.79511 5.36021 5.79511C5.38227 5.8613 5.38227 6.05986 5.49258 6.0378C5.62496 5.99368 5.47052 5.81717 5.6029 5.77305C5.64702 5.88336 5.62496 6.2143 5.47052 6.19224C5.33815 6.17017 5.36021 6.08192 5.20577 6.17017C5.0734 6.23636 5.02927 6.17017 4.94102 6.10399C4.91896 6.36874 5.00721 6.65555 4.85277 6.89824C4.7204 7.0968 4.45565 7.20711 4.23502 7.25124C3.6614 7.36155 3.50696 6.78793 3.70552 6.32461C3.74965 6.45699 3.6614 6.69967 3.70552 6.85411ZM9.08877 6.96442C9.19908 7.25124 9.41971 6.65555 9.4859 6.5673C9.6624 6.30255 9.92715 6.98649 10.0375 6.54524C10.1036 6.25842 10.0154 5.97161 9.99333 5.6848C9.97127 5.48624 9.90508 5.30974 9.77271 5.1553C9.64033 4.9788 9.50796 4.82436 9.57415 4.60374C9.79477 4.69199 9.79477 4.86849 9.90508 5.04499C9.92715 4.91261 9.83889 4.73611 9.92715 4.6258C10.0375 4.47136 10.1257 4.89055 10.1257 4.93468C10.1478 5.04499 10.0375 5.08911 10.1036 5.26561C10.1478 5.39799 10.236 5.53036 10.3243 5.64067C10.3022 5.5083 10.1036 4.60374 10.3243 4.60374C10.3905 4.60374 10.4566 4.86849 10.4566 4.91261C10.5008 5.04499 10.4125 5.1553 10.4125 5.30974C10.3905 5.57449 10.4346 5.88336 10.6111 6.08192C10.6993 6.19224 11.0303 6.58936 10.8538 6.72174C10.7214 6.5673 10.6331 6.3908 10.5228 6.23636C10.5228 6.41286 10.567 6.61142 10.4787 6.7438C10.3905 6.69967 10.4346 6.41286 10.4346 6.34668C10.4346 6.10399 10.2801 5.90543 10.1478 5.70686C10.1036 6.0378 10.3684 6.65555 10.0595 6.89824C9.86096 7.07474 9.59621 6.67761 9.53002 6.83205C9.46383 6.94236 9.3094 7.33949 9.1329 7.29536C8.91227 7.25124 8.75783 6.63349 9.00052 6.5673C9.02258 6.67761 9.02258 6.83205 9.08877 6.96442Z" fill="white"/>
<path d="M4.36734 5.46453C4.52178 5.48659 4.36734 4.95709 4.36734 4.86884C4.3894 4.78059 4.45559 4.73647 4.49972 4.82472C4.5659 4.95709 4.5659 5.11153 4.58797 5.24391C4.58797 5.35422 4.61003 5.48659 4.52178 5.57484C4.3894 5.70722 4.2129 5.64103 4.14672 5.46453C3.83784 5.72928 4.23497 6.19259 3.97022 6.45734C3.92609 6.21466 3.97022 5.94991 3.88197 5.72928C3.83784 5.61897 3.63928 5.66309 3.61722 5.46453C3.61722 5.37628 3.6834 5.13359 3.59515 5.06741C3.55103 5.15566 3.5069 5.83959 3.28628 5.64103C3.10978 5.50866 3.1539 5.06741 3.22009 4.89091C3.35247 4.95709 3.19803 5.44247 3.37453 5.46453C3.46278 5.48659 3.48484 5.11153 3.5069 5.04534C3.57309 4.93503 3.79372 4.62616 3.74959 4.93503C3.72753 5.06741 3.61722 5.48659 3.88197 5.46453C3.8599 5.24391 3.83784 5.02328 3.79372 4.80266C3.77165 4.69234 3.83784 4.47172 3.92609 4.67028C3.99228 4.80266 3.94815 4.86884 3.92609 5.00122C3.90403 5.15566 3.97022 5.31009 3.99228 5.44247C4.12465 5.33216 3.94815 4.91297 4.05847 4.73647C4.32322 4.89091 4.0364 5.42041 4.36734 5.46453ZM7.2134 5.50866C7.10309 5.66309 6.90453 5.53072 6.81628 5.42041C6.70597 5.55278 6.48534 5.77341 6.30884 5.59691C6.17647 5.46453 6.3309 5.22184 6.22059 5.11153C6.1544 5.22184 6.04409 5.75134 5.84553 5.50866C5.73522 5.37628 5.58078 4.91297 5.82347 4.80266C5.8014 4.97916 5.75728 5.17772 5.86759 5.33216C5.9779 5.48659 6.08822 5.08947 6.13234 5.00122C6.19853 4.84678 6.41915 4.58203 6.37503 4.91297C6.35297 5.04534 6.30884 5.35422 6.44122 5.44247C6.52947 5.50866 6.63978 5.39834 6.6839 5.33216C6.77215 5.22184 6.72803 5.04534 6.70597 4.91297C6.6839 4.80266 6.63978 4.67028 6.70597 4.55997C6.79422 4.42759 6.8604 4.73647 6.8604 4.80266C6.8604 4.86884 6.94865 5.55278 7.10309 5.33216C7.25753 5.13359 6.83834 4.69234 7.12515 4.58203C7.23547 4.53791 7.43403 4.97916 7.2134 4.84678C7.27959 5.04534 7.36784 5.33216 7.2134 5.50866ZM8.05178 5.77341C8.07384 6.06022 8.31653 6.85447 7.98559 7.03097C7.94147 6.94272 7.98559 6.81034 8.00765 6.70003C8.02972 6.50147 7.98559 6.30291 7.96353 6.12641C7.9194 5.70722 7.87528 5.39834 7.58847 5.06741C7.52228 4.97916 7.41197 4.91297 7.3899 4.78059C7.3899 4.73647 7.36784 4.53791 7.45609 4.58203C7.52228 4.60409 7.89734 4.93503 7.69878 4.93503C7.72084 4.97916 7.80909 5.15566 7.85322 5.15566C7.85322 5.04534 7.72084 4.71441 7.85322 4.64822C7.96353 4.58203 8.0959 5.00122 8.05178 5.08947C8.00765 5.19978 8.00765 5.26597 8.05178 5.42041C8.0959 5.59691 8.20622 5.75134 8.29447 5.90578C8.42684 6.12641 8.69159 6.43528 8.6254 6.72209C8.49303 6.65591 8.40478 6.34703 8.33859 6.21466C8.29447 6.10434 8.25034 5.99403 8.18415 5.90578C8.16209 5.88372 8.02972 5.70722 8.05178 5.81753V5.77341ZM11.1185 6.19259C11.1405 6.65591 10.9861 7.25159 10.4125 7.25159C10.4125 7.11922 10.6993 6.98684 10.7875 6.92066C11.0082 6.74416 10.9861 6.41322 10.964 6.17053C10.942 5.83959 10.9199 5.50866 10.8537 5.17772C10.8317 4.97916 10.7213 4.69234 10.8978 4.55997C11.0082 4.64822 11.1626 4.89091 11.0964 4.97916C10.9861 5.11153 11.0964 6.10434 11.1185 6.19259Z" fill="white"/>
<path d="M8.2945 7.1857C8.86813 6.85476 8.69163 6.14877 8.6475 5.5972C8.62544 5.44277 8.62544 5.28833 8.60337 5.13389C8.60337 5.02358 8.51513 4.86914 8.55925 4.75883C8.66956 4.47201 8.75781 4.73676 8.77988 4.91326C8.80194 5.02358 8.71369 5.04564 8.73575 5.13389C8.75781 5.31039 8.75781 5.48689 8.77988 5.66339C8.80194 5.9502 8.84606 6.23701 8.824 6.50176C8.77987 6.92095 8.55925 7.38427 8.05181 7.29602C8.07387 7.25189 8.22831 7.22983 8.2945 7.1857ZM9.22113 6.08258C9.24319 6.3032 9.33144 6.70033 9.22113 6.89889C9.13288 7.03127 9.13288 6.81064 9.11081 6.78858C9.08875 6.61208 9.08875 6.43558 9.08875 6.23702C9.04462 5.75164 8.89019 5.26627 8.89019 4.80295C8.89019 4.20726 9.39763 5.13389 9.11081 5.08976C9.13288 5.4207 9.177 5.75164 9.22113 6.08258ZM5.62494 4.95739C5.66906 5.0677 5.1175 5.35452 5.05131 5.35452C5.02925 5.2442 5.294 5.08977 5.36019 5.04564C5.42637 4.97945 5.4705 4.97945 5.44844 4.8912C5.40431 4.80295 5.42638 4.64852 5.53669 4.60439C5.75731 4.5382 5.60287 4.86914 5.62494 4.95739ZM3.3525 6.92095C3.3525 7.09745 3.41869 7.0092 3.50694 6.96508C3.55106 7.05333 3.44075 7.29602 3.33044 7.1857C3.176 7.03127 3.30837 6.67826 3.37456 6.52383C3.41869 6.63414 3.33044 6.81064 3.3525 6.92095ZM9.57413 5.55308C9.59619 5.46483 9.53 5.37658 9.59619 5.28833C9.68444 5.17801 9.77269 5.31039 9.72856 5.35452C9.68444 5.39864 9.61825 5.31039 9.61825 5.44276C9.61825 5.50895 9.66237 5.64133 9.59619 5.70752C9.55206 5.68545 9.3535 5.39864 9.37556 5.35452C9.46381 5.26627 9.55206 5.53101 9.57413 5.55308ZM3.81581 5.92814C3.77169 6.01639 3.26425 6.3032 3.24219 6.23702C3.24219 6.17083 3.882 5.79577 3.81581 5.92814ZM7.56644 7.05333C7.50025 7.25189 7.78706 7.07539 7.85325 7.05333C7.765 7.20776 7.45612 7.34014 7.50025 7.05333C7.47819 7.05333 7.43406 7.07539 7.412 7.07539C7.36788 7.03127 7.63263 6.85476 7.56644 7.05333ZM9.97125 6.98714C10.0374 6.98714 10.1477 7.1857 10.0816 7.22983C10.0374 7.27395 9.83888 7.29602 9.94919 7.20777C10.0816 7.07539 9.97125 6.98714 9.97125 6.98714ZM6.86044 5.86195C6.8825 5.81783 6.8825 5.75164 6.90456 5.70752C7.12519 5.88402 6.55156 6.17083 6.66187 5.75164C6.706 5.79576 6.706 5.86195 6.75013 5.88401C6.75013 5.83989 6.77219 5.7737 6.77219 5.72958C6.81631 5.7737 6.81631 5.83989 6.86044 5.86195ZM9.44175 6.14877C9.37556 6.06052 9.77269 5.81783 9.83888 5.7737C9.883 5.83989 9.57413 6.08258 9.44175 6.14877ZM10.6772 5.26627C10.6331 5.13389 10.5008 4.86914 10.6331 4.75883C10.7214 4.82501 10.7655 5.15595 10.6772 5.26627ZM8.27244 4.82502C8.25037 4.78089 8.18419 4.73676 8.18419 4.67058C8.20625 4.58233 8.25038 4.60439 8.2945 4.64851C8.36069 4.73676 8.40481 4.97945 8.2945 5.04564C8.2945 4.97945 8.31656 4.8912 8.27244 4.82502ZM5.58081 5.4207C5.58081 5.55308 5.36019 5.68545 5.33812 5.50895C5.31606 5.44276 5.42637 5.20008 5.4705 5.26627C5.38225 5.46483 5.38225 5.53101 5.58081 5.4207Z" fill="white"/>
<path d="M8.33861 5.1771C8.42686 5.39773 8.38273 5.19916 8.47098 5.15504C8.62542 5.44185 8.14004 5.37566 8.25036 5.19916C8.27242 5.22123 8.29448 5.26535 8.29448 5.28741C8.31654 5.26535 8.31654 5.22123 8.33861 5.1771ZM9.75061 6.19198C9.64029 6.10373 9.77267 5.99341 9.83886 6.10373C9.88298 6.16991 9.88298 6.34641 9.79473 6.39054C9.79473 6.32435 9.81679 6.2361 9.75061 6.19198ZM5.22779 6.67735C5.22779 6.63323 5.20573 6.30229 5.27192 6.34641C5.36017 6.39054 5.33811 6.63323 5.22779 6.67735ZM4.30117 4.60348C4.32323 4.66966 4.34529 4.75791 4.38942 4.6476C4.56592 4.84616 3.94817 4.77998 4.16879 4.58141C4.16879 4.60348 4.21292 4.73585 4.30117 4.60348ZM6.55154 5.08885C6.55154 5.0006 6.41917 4.62554 6.52948 4.62554C6.66186 4.6476 6.63979 4.97854 6.55154 5.08885ZM3.46279 4.89029C3.39661 4.86823 3.50692 4.75791 3.46279 4.66966C3.41867 4.69173 3.37454 4.62554 3.41867 4.58141C3.59517 4.44904 3.52898 4.89029 3.46279 4.89029ZM9.17698 9.36898L9.08873 9.10423L9.00048 9.36898H4.16879C4.16879 9.36898 4.21292 9.7661 4.69829 9.7661H8.97842V10.075H10.1477V9.36898H9.17698ZM9.9271 9.89848H9.13286V9.67785H9.9271V9.89848Z" fill="white"/>
</svg>
