<svg width="15" height="15" viewBox="0 0 15 15" fill="none" xmlns="http://www.w3.org/2000/svg">
<path d="M0.527466 7.41086C0.527466 8.71255 0.902528 9.92598 1.54234 10.9409H12.728C13.3678 9.92598 13.7429 8.71255 13.7429 7.41086C13.7429 6.10917 13.3678 4.89573 12.728 3.88086H1.54234C0.902528 4.89573 0.527466 6.10917 0.527466 7.41086Z" fill="#FFCE31"/>
<path d="M12.7501 3.88172C11.5808 2.02847 9.50692 0.792969 7.14623 0.792969C4.78555 0.792969 2.71167 2.02847 1.54236 3.88172H12.7501ZM1.54236 10.9417C2.71167 12.795 4.78555 14.0305 7.14623 14.0305C9.50692 14.0305 11.5808 12.795 12.7501 10.9417H1.54236Z" fill="#ED4C5C"/>
<path d="M2.11597 6.68359H2.82197V7.08072H2.11597V6.68359ZM2.11597 9.59584H2.84403V9.97091H2.11597V9.59584Z" fill="#C8B100"/>
<path d="M2.04977 8.97852C1.98358 9.02264 1.93945 9.06677 1.93945 9.08883C1.93945 9.11089 1.96152 9.13295 2.00564 9.15502C2.04977 9.17708 2.09389 9.2212 2.07183 9.26533C2.11595 9.2212 2.13802 9.17708 2.13802 9.13295C2.13802 9.06677 2.09389 9.00058 2.04977 8.97852Z" fill="#ED4C5C"/>
<path d="M2.2262 7.08008H2.73363V9.5952H2.2262V7.08008Z" fill="white"/>
<path d="M3.26314 8.00788C3.15283 7.96375 2.95426 7.91962 2.73364 7.91962C2.66745 7.91962 2.5792 7.91963 2.49095 7.94169C2.18208 7.98581 1.93939 8.11819 1.96145 8.20644L1.85114 7.96375C1.82908 7.85344 2.09383 7.72106 2.42476 7.65487C2.53508 7.63281 2.64539 7.63281 2.73364 7.63281C2.95426 7.63281 3.15283 7.65487 3.26314 7.699V8.00788Z" fill="#ED4C5C"/>
<path d="M2.22621 8.33897C2.09383 8.33897 1.98352 8.29484 1.98352 8.22866C1.98352 8.18453 2.02765 8.11834 2.1159 8.07422H2.24827L2.22621 8.33897ZM2.73365 8.14041C2.8219 8.16247 2.88808 8.18453 2.93221 8.20659C2.95427 8.22866 2.86602 8.31691 2.73365 8.38309V8.14041Z" fill="#ED4C5C"/>
<path d="M1.89529 8.82478C1.87323 8.78066 2.02767 8.69241 2.22623 8.62622C2.31448 8.60416 2.38067 8.56003 2.49098 8.51591C2.75573 8.40559 2.97635 8.25116 2.93223 8.20703L2.97635 8.47178C2.99842 8.51591 2.82192 8.64828 2.55717 8.78066C2.46892 8.82478 2.31448 8.89097 2.22623 8.91303C2.07179 8.95716 1.93942 9.04541 1.93942 9.06747L1.89529 8.82478Z" fill="#ED4C5C"/>
<path d="M6.85934 6.68359H7.56534V7.08072H6.85934V6.68359ZM6.83728 9.59584H7.56534V9.97091H6.83728V9.59584Z" fill="#C8B100"/>
<path d="M7.63159 8.97852C7.69777 9.02264 7.7419 9.06677 7.7419 9.08883C7.7419 9.11089 7.71984 9.13295 7.67571 9.15502C7.63159 9.19914 7.58746 9.26533 7.60952 9.28739C7.5654 9.24327 7.54333 9.19914 7.54333 9.15502C7.54333 9.06677 7.58746 9.00058 7.63159 8.97852Z" fill="#ED4C5C"/>
<path d="M6.94763 7.08008H7.45507V9.5952H6.94763V7.08008Z" fill="white"/>
<path d="M6.41809 8.00788C6.5284 7.96375 6.72697 7.91962 6.94759 7.91962C7.01378 7.91962 7.10203 7.91963 7.19028 7.94169C7.49915 7.98581 7.74184 8.11819 7.71978 8.20644L7.83009 7.94169C7.85215 7.83138 7.5874 7.699 7.25647 7.63281H6.94759C6.72697 7.63281 6.5284 7.65487 6.41809 7.699V8.00788Z" fill="#ED4C5C"/>
<path d="M7.45498 8.33897C7.58736 8.33897 7.69767 8.29484 7.69767 8.22866C7.69767 8.18453 7.65355 8.11834 7.5653 8.07422H7.43292L7.45498 8.33897ZM6.94755 8.14041C6.8593 8.16247 6.79311 8.18453 6.74898 8.20659C6.72692 8.22866 6.81517 8.31691 6.94755 8.38309V8.14041Z" fill="#ED4C5C"/>
<path d="M7.78596 8.82355C7.80803 8.77942 7.65359 8.69117 7.45503 8.62498C7.36678 8.60292 7.30059 8.5588 7.19028 8.51467C6.92553 8.40436 6.7049 8.24992 6.74903 8.2058L6.7049 8.47055C6.68284 8.51467 6.85934 8.64705 7.12409 8.77942C7.21234 8.82355 7.36678 8.88973 7.45503 8.9118C7.60946 8.95592 7.74184 9.06623 7.71978 9.0883L7.78596 8.82355ZM4.82959 5.27148C5.24878 5.27148 6.10921 5.35973 6.41809 5.66861C6.08715 6.46286 5.55765 6.13192 4.82959 6.13192C4.12359 6.13192 3.57203 6.46286 3.24109 5.66861C3.54996 5.35973 4.38834 5.27148 4.82959 5.27148Z" fill="#ED4C5C"/>
<path d="M5.91062 6.15462C5.64587 6.00019 5.24875 5.97812 4.82956 5.97812C4.41037 5.97812 4.01325 6.02225 3.7485 6.15462L3.83675 6.52969C4.07943 6.59588 4.43243 6.64 4.82956 6.64C5.22668 6.64 5.55762 6.59588 5.82237 6.52969L5.91062 6.15462ZM6.28568 5.20594C6.19743 5.13975 6.02093 5.07356 5.8665 5.07356C5.80031 5.07356 5.73412 5.07356 5.66793 5.09562C5.66793 5.09562 5.53556 4.91913 5.22668 4.91913C5.11637 4.91913 5.02812 4.94119 4.93987 4.98531V4.96325C4.91781 4.91912 4.87368 4.875 4.82956 4.875C4.78543 4.875 4.71925 4.94119 4.71925 4.98531V5.00738C4.631 4.96325 4.54275 4.94119 4.43243 4.94119C4.12356 4.94119 3.99118 5.13975 3.99118 5.11769C3.925 5.09563 3.85881 5.09562 3.79262 5.09562C2.77775 5.09562 3.28518 5.77956 3.28518 5.77956L3.3955 5.64719C3.15281 5.33831 3.37343 5.16181 3.81468 5.16181C3.88087 5.16181 3.925 5.16181 3.96912 5.18387C3.81468 5.4045 4.1015 5.60306 4.1015 5.60306L4.16768 5.49275C4.01325 5.38244 3.99118 5.00738 4.43243 5.00738C4.54275 5.00738 4.631 5.02944 4.71925 5.09562C4.71925 5.11769 4.69718 5.42656 4.67512 5.47069L4.85162 5.62512L5.02812 5.47069C5.00606 5.4045 4.984 5.11769 4.984 5.09562C5.05018 5.0515 5.1605 5.00738 5.27081 5.00738C5.73412 5.00738 5.73412 5.38244 5.53556 5.49275L5.60175 5.60306C5.60175 5.60306 5.84443 5.4045 5.73412 5.18387C5.77825 5.18387 5.84443 5.16181 5.88856 5.16181C6.41806 5.16181 6.44012 5.55894 6.30775 5.64719L6.396 5.77956C6.35187 5.77956 6.59456 5.47069 6.28568 5.20594Z" fill="#C8B100"/>
<path d="M4.69727 4.78667C4.69727 4.72048 4.76345 4.6543 4.82964 4.6543C4.91789 4.6543 4.96202 4.72048 4.96202 4.78667C4.96202 4.85286 4.89583 4.91905 4.82964 4.91905C4.76345 4.91905 4.69727 4.85286 4.69727 4.78667Z" fill="#005BBF"/>
<path d="M4.78552 4.41016V4.47634H4.71933V4.54253H4.78552V4.76316H4.69727V4.82934H4.96202L4.98408 4.78522L4.96202 4.76316H4.87377V4.54253H4.93995V4.47634H4.87377V4.41016H4.78552Z" fill="#C8B100"/>
<path d="M4.82961 6.59562C4.47661 6.59562 4.16774 6.5515 3.92505 6.48531C4.16774 6.41912 4.47661 6.375 4.82961 6.375C5.18261 6.375 5.49149 6.41912 5.73417 6.48531C5.51355 6.5515 5.18261 6.59562 4.82961 6.59562Z" fill="#ED4C5C"/>
<path d="M4.85168 10.4127C4.4325 10.4127 4.03537 10.3024 3.68237 10.148C3.41762 10.0156 3.26318 9.77292 3.26318 9.48611V8.42711H6.44018V9.48611C6.44018 9.77292 6.26368 10.0377 6.021 10.148C5.668 10.3245 5.27087 10.4127 4.85168 10.4127ZM4.82962 6.66211H6.41812V8.42711H4.82962V6.66211Z" fill="white"/>
<path d="M4.85168 9.48478C4.85168 9.90397 4.49868 10.2349 4.05743 10.2349C3.61618 10.2349 3.26318 9.90397 3.26318 9.48478V8.42578H4.85168V9.48478Z" fill="#ED4C5C"/>
<path d="M3.59409 10.1037C3.63821 10.1257 3.7044 10.1699 3.79265 10.1919V8.38281H3.61615L3.59409 10.1037ZM3.24109 9.46387C3.24109 9.6845 3.32934 9.861 3.41759 9.94925V8.38281H3.24109V9.46387Z" fill="#C8B100"/>
<path d="M3.94714 10.2361H4.12364V8.38281H3.94714V10.2361Z" fill="#C7B500"/>
<path d="M4.30017 10.1919C4.36636 10.1699 4.45461 10.1257 4.49873 10.1037V8.38281H4.32223L4.30017 10.1919Z" fill="#C8B100"/>
<path d="M3.24109 6.66211H4.82959V8.42711H3.24109V6.66211Z" fill="#ED4C5C"/>
<path d="M4.67517 9.94867C4.76342 9.88248 4.82961 9.72805 4.85167 9.55155V8.4043H4.67517V9.94867Z" fill="#C8B100"/>
<path d="M6.44024 8.4271V9.4861C6.44024 9.90529 6.08724 10.2362 5.64599 10.2362C5.20474 10.2362 4.85174 9.90529 4.85174 9.4861V8.4271H6.44024ZM5.86662 6.97098C5.9328 7.10335 5.9328 7.43429 5.73424 7.3681C5.77837 7.39016 5.80043 7.5446 5.86662 7.63285C5.97693 7.76523 6.1093 7.65491 6.08724 7.50048C6.04312 7.25779 6.06518 7.10335 6.1093 6.86066C6.1093 6.88273 6.21962 6.88273 6.26374 6.8386C6.24168 6.90479 6.21962 6.99304 6.26374 6.99304C6.21962 7.05923 6.1093 7.16954 6.08724 7.23573C6.06518 7.39016 6.30787 7.67698 6.04312 7.74316C5.86662 7.78729 5.97693 7.91966 6.04312 7.98585C6.04312 7.98585 5.95487 8.27266 5.99899 8.2506C5.82249 8.31679 5.86662 8.16235 5.86662 8.16235C5.95487 7.8976 5.71218 7.87554 5.73424 7.83141C5.51362 7.80935 5.7563 8.02998 5.55774 8.02998C5.51362 8.02998 5.42537 8.0741 5.42537 8.0741C5.18268 8.05204 5.31505 7.83141 5.4033 7.85348C5.46949 7.87554 5.53568 7.98585 5.53568 7.83141C5.53568 7.83141 5.42537 7.65491 5.71218 7.65491C5.60187 7.65491 5.53568 7.56666 5.49155 7.45635C5.44743 7.47841 5.38124 7.58873 5.13855 7.61079C5.13855 7.61079 5.07237 7.3681 5.13855 7.41223C5.2268 7.45635 5.27093 7.45635 5.35918 7.3681C5.31505 7.30191 5.0503 7.21366 5.09443 7.05923C5.09443 7.0151 5.2268 6.94891 5.2268 6.94891C5.20474 7.05923 5.27093 7.16954 5.4033 7.16954C5.5798 7.1916 5.51362 7.12541 5.53568 7.08129C5.55774 7.03716 5.69012 7.10335 5.64599 6.99304C5.64599 6.97098 5.49155 6.94891 5.53568 6.88273C5.62393 6.77241 5.7563 6.86066 5.86662 6.97098ZM4.85174 10.1921L4.80762 10.0818L4.85174 9.94941L4.89587 10.0818L4.85174 10.1921Z" fill="#ED4C5C"/>
<path d="M3.72649 7.03587V7.14619H3.77062V7.23444H3.6603V7.45506H3.72649V7.94044H3.59412V8.18313H4.49868V7.94044H4.38837V7.45506H4.43249V7.23444H4.32218V7.14619H4.38837V7.03587H4.16774V7.14619H4.21187V7.23444H4.10155V6.96969H4.16774V6.85938H3.92505V6.96969H3.99124V7.23444H3.88093V7.14619H3.92505V7.03587H3.72649ZM6.21955 9.74956V8.64644H5.0723V9.74956L5.6018 9.99225H5.66799L6.21955 9.74956ZM5.6018 8.73469V9.10975L5.22674 8.73469H5.6018ZM5.13849 8.75675L5.57974 9.198L5.13849 9.63925V8.75675ZM5.18262 9.7275L5.6018 9.30831V9.92606L5.18262 9.7275ZM5.66799 9.904V9.28625L6.08718 9.70544L5.66799 9.904ZM6.1313 9.63925L5.69005 9.198L6.1313 8.75675V9.63925ZM5.66799 8.73469H6.04305L5.66799 9.10975V8.73469Z" fill="#C8B100"/>
<path d="M4.32214 8.4037C4.32214 8.07277 4.54277 7.83008 4.82958 7.83008C5.11639 7.83008 5.33702 8.09483 5.33702 8.4037C5.33702 8.71258 5.11639 8.97733 4.82958 8.97733C4.54277 8.97733 4.32214 8.73464 4.32214 8.4037Z" fill="#ED4C5C"/>
<path d="M4.47656 8.40356C4.47656 8.16088 4.631 7.98438 4.82956 7.98438C5.02813 7.98438 5.18256 8.18294 5.18256 8.40356C5.18256 8.64625 5.02813 8.82275 4.82956 8.82275C4.65306 8.84481 4.47656 8.64625 4.47656 8.40356Z" fill="#005BBF"/>
<path d="M4.67516 8.11719L4.58691 8.35987L4.6531 8.38194L4.60898 8.47019H4.74135L4.69723 8.38194L4.76341 8.35987L4.67516 8.11719ZM5.0061 8.11719L4.91785 8.35987L4.98404 8.38194L4.93991 8.47019H5.07229L5.05023 8.38194L5.11641 8.35987L5.0061 8.11719ZM4.85166 8.404L4.74135 8.64669L4.80754 8.66875L4.78548 8.757H4.89579L4.87373 8.66875L4.93991 8.64669L4.85166 8.404Z" fill="#C8B100"/>
</svg>
