<svg width="38" height="30" viewBox="0 0 38 30" fill="none" xmlns="http://www.w3.org/2000/svg">
<path d="M2.81641 13.082C1.71184 13.082 0.816406 13.9775 0.816406 15.082C0.816406 16.1866 1.71184 17.082 2.81641 17.082V13.082ZM36.8537 16.4962C37.6347 15.7152 37.6347 14.4489 36.8537 13.6678L24.1257 0.939896C23.3447 0.158847 22.0784 0.158847 21.2973 0.939896C20.5163 1.72094 20.5163 2.98727 21.2973 3.76832L32.611 15.082L21.2973 26.3957C20.5163 27.1768 20.5163 28.4431 21.2973 29.2242C22.0784 30.0052 23.3447 30.0052 24.1257 29.2242L36.8537 16.4962ZM2.81641 17.082H35.4395V13.082H2.81641V17.082Z" fill="#00A139"/>
</svg>
