<svg width="13" height="14" viewBox="0 0 13 14" fill="none" xmlns="http://www.w3.org/2000/svg">
<path fill-rule="evenodd" clip-rule="evenodd" d="M4.07338 0.846489C4.74689 0.815484 4.96163 0.808594 6.67727 0.808594C8.3929 0.808594 8.60765 0.816058 9.28058 0.846489C9.95351 0.876921 10.4129 0.984292 10.8148 1.13989C11.2356 1.29894 11.6175 1.54756 11.9333 1.8691C12.2548 2.18432 12.5029 2.56557 12.6613 2.98702C12.8175 3.38894 12.9243 3.84828 12.9553 4.52007C12.9863 5.19473 12.9932 5.40947 12.9932 7.12453C12.9932 8.84017 12.9857 9.05491 12.9553 9.72842C12.9249 10.4002 12.8175 10.8595 12.6613 11.2615C12.5029 11.683 12.2544 12.0649 11.9333 12.3805C11.6175 12.7021 11.2356 12.9501 10.8148 13.1086C10.4129 13.2648 9.95351 13.3716 9.28173 13.4026C8.60765 13.4336 8.3929 13.4405 6.67727 13.4405C4.96163 13.4405 4.74689 13.433 4.07338 13.4026C3.40159 13.3721 2.94225 13.2648 2.54033 13.1086C2.11884 12.9501 1.73695 12.7017 1.42126 12.3805C1.09994 12.0651 0.851281 11.6834 0.692628 11.262C0.537026 10.8601 0.430229 10.4008 0.399224 9.72899C0.368218 9.05434 0.361328 8.8396 0.361328 7.12453C0.361328 5.40889 0.368792 5.19415 0.399224 4.52122C0.429655 3.84828 0.537026 3.38894 0.692628 2.98702C0.851515 2.56562 1.10036 2.18393 1.42183 1.86852C1.73708 1.54727 2.11858 1.29862 2.53975 1.13989C2.94168 0.984292 3.40159 0.877495 4.07338 0.846489ZM9.22948 1.98336C8.56343 1.95293 8.36362 1.94661 6.67727 1.94661C4.99091 1.94661 4.7911 1.95293 4.12505 1.98336C3.50896 2.01149 3.17479 2.11427 2.95201 2.20097C2.65746 2.31581 2.44674 2.45189 2.22568 2.67294C2.01613 2.87681 1.85486 3.12498 1.75371 3.39928C1.667 3.62206 1.56423 3.95623 1.53609 4.57232C1.50566 5.23836 1.49935 5.43818 1.49935 7.12453C1.49935 8.81089 1.50566 9.0107 1.53609 9.67674C1.56423 10.2928 1.667 10.627 1.75371 10.8498C1.85476 11.1237 2.0161 11.3723 2.22568 11.5761C2.42951 11.7857 2.67813 11.947 2.95201 12.0481C3.17479 12.1348 3.50896 12.2376 4.12505 12.2657C4.7911 12.2961 4.99034 12.3025 6.67727 12.3025C8.3642 12.3025 8.56343 12.2961 9.22948 12.2657C9.84557 12.2376 10.1797 12.1348 10.4025 12.0481C10.6971 11.9333 10.9078 11.7972 11.1289 11.5761C11.3384 11.3723 11.4998 11.1237 11.6008 10.8498C11.6875 10.627 11.7903 10.2928 11.8184 9.67674C11.8489 9.0107 11.8552 8.81089 11.8552 7.12453C11.8552 5.43818 11.8489 5.23836 11.8184 4.57232C11.7903 3.95623 11.6875 3.62206 11.6008 3.39928C11.486 3.10472 11.3499 2.894 11.1289 2.67294C10.925 2.46341 10.6768 2.30215 10.4025 2.20097C10.1797 2.11427 9.84557 2.01149 9.22948 1.98336ZM5.87055 9.07156C6.32108 9.25911 6.82275 9.28442 7.28987 9.14317C7.75699 9.00193 8.16059 8.70289 8.43172 8.29714C8.70286 7.89138 8.82472 7.40408 8.77648 6.91846C8.72824 6.43284 8.51291 5.97903 8.16725 5.63454C7.94691 5.41433 7.68047 5.24572 7.38714 5.14084C7.0938 5.03596 6.78086 4.99742 6.47085 5.02799C6.16083 5.05857 5.86145 5.15751 5.59426 5.31767C5.32706 5.47784 5.09871 5.69526 4.92563 5.95427C4.75255 6.21329 4.63905 6.50746 4.5933 6.8156C4.54756 7.12375 4.5707 7.4382 4.66107 7.73633C4.75144 8.03445 4.90678 8.30883 5.11592 8.53972C5.32506 8.7706 5.58279 8.95224 5.87055 9.07156ZM4.38171 4.82897C4.68317 4.52752 5.04105 4.28839 5.43492 4.12524C5.82879 3.9621 6.25094 3.87812 6.67727 3.87812C7.10359 3.87812 7.52574 3.9621 7.91961 4.12524C8.31348 4.28839 8.67137 4.52752 8.97282 4.82897C9.27428 5.13043 9.51341 5.48831 9.67655 5.88219C9.8397 6.27606 9.92367 6.69821 9.92367 7.12453C9.92367 7.55086 9.8397 7.97301 9.67655 8.36688C9.51341 8.76075 9.27428 9.11863 8.97282 9.42009C8.364 10.0289 7.53827 10.3709 6.67727 10.3709C5.81626 10.3709 4.99053 10.0289 4.38171 9.42009C3.77289 8.81127 3.43086 7.98553 3.43086 7.12453C3.43086 6.26353 3.77289 5.43779 4.38171 4.82897ZM10.6437 4.3616C10.7184 4.29113 10.7782 4.20638 10.8195 4.11239C10.8609 4.01839 10.883 3.91705 10.8845 3.81437C10.886 3.71168 10.8669 3.60974 10.8283 3.51458C10.7897 3.41941 10.7323 3.33297 10.6597 3.26035C10.5871 3.18773 10.5007 3.13042 10.4055 3.09182C10.3103 3.05321 10.2084 3.03409 10.1057 3.03558C10.003 3.03708 9.90169 3.05917 9.80769 3.10053C9.71369 3.1419 9.62895 3.2017 9.55848 3.2764C9.42143 3.42169 9.3464 3.61466 9.34931 3.81437C9.35222 4.01407 9.43285 4.20478 9.57407 4.346C9.7153 4.48723 9.90601 4.56786 10.1057 4.57077C10.3054 4.57368 10.4984 4.49865 10.6437 4.3616Z" fill="white"/>
</svg>
