<svg width="13" height="14" viewBox="0 0 13 14" fill="none" xmlns="http://www.w3.org/2000/svg">
<path fill-rule="evenodd" clip-rule="evenodd" d="M0.810547 1.84262C0.810547 1.57252 0.917842 1.31349 1.10883 1.1225C1.29982 0.931515 1.55885 0.82422 1.82895 0.82422H11.9808C12.1147 0.824001 12.2472 0.850186 12.3709 0.901274C12.4947 0.952362 12.6071 1.02735 12.7018 1.12195C12.7965 1.21654 12.8716 1.32889 12.9228 1.45255C12.9741 1.57622 13.0004 1.70877 13.0003 1.84262V11.9945C13.0005 12.1283 12.9742 12.2609 12.923 12.3847C12.8719 12.5084 12.7969 12.6208 12.7022 12.7155C12.6076 12.8102 12.4952 12.8853 12.3715 12.9365C12.2478 12.9877 12.1152 13.0141 11.9814 13.014H1.82895C1.69516 13.014 1.56269 12.9876 1.43909 12.9364C1.3155 12.8852 1.20321 12.8101 1.10863 12.7155C1.01406 12.6209 0.939056 12.5085 0.887909 12.3849C0.836762 12.2613 0.810474 12.1288 0.810547 11.995V1.84262ZM5.63548 5.47184H7.28608V6.30075C7.52433 5.82424 8.13382 5.39538 9.04972 5.39538C10.8056 5.39538 11.2217 6.34452 11.2217 8.08599V11.3118H9.44477V8.48271C9.44477 7.49091 9.20652 6.93129 8.60146 6.93129C7.76203 6.93129 7.41296 7.53468 7.41296 8.48271V11.3118H5.63548V5.47184ZM2.58804 11.2359H4.36552V5.39538H2.58804V11.2354V11.2359ZM4.61985 3.49045C4.6232 3.64264 4.59612 3.79397 4.54019 3.93555C4.48427 4.07714 4.40063 4.20612 4.29418 4.31494C4.18773 4.42376 4.06061 4.51022 3.9203 4.56925C3.77998 4.62828 3.62928 4.65868 3.47706 4.65868C3.32483 4.65868 3.17414 4.62828 3.03382 4.56925C2.8935 4.51022 2.76639 4.42376 2.65994 4.31494C2.55349 4.20612 2.46985 4.07714 2.41392 3.93555C2.358 3.79397 2.33092 3.64264 2.33427 3.49045C2.34085 3.19172 2.46413 2.90744 2.67773 2.6985C2.89133 2.48955 3.17825 2.37255 3.47706 2.37255C3.77586 2.37255 4.06278 2.48955 4.27638 2.6985C4.48998 2.90744 4.61327 3.19172 4.61985 3.49045V3.49045Z" fill="white"/>
</svg>
