<svg width="38" height="30" viewBox="0 0 38 30" fill="none" xmlns="http://www.w3.org/2000/svg">
<path d="M35.1836 13.082C36.2882 13.082 37.1836 13.9775 37.1836 15.082C37.1836 16.1866 36.2882 17.082 35.1836 17.082V13.082ZM1.14633 16.4962C0.365284 15.7152 0.365284 14.4489 1.14633 13.6678L13.8743 0.939896C14.6553 0.158847 15.9216 0.158847 16.7027 0.939896C17.4837 1.72094 17.4837 2.98727 16.7027 3.76832L5.38897 15.082L16.7027 26.3957C17.4837 27.1768 17.4837 28.4431 16.7027 29.2242C15.9216 30.0052 14.6553 30.0052 13.8743 29.2242L1.14633 16.4962ZM35.1836 17.082H2.56055V13.082H35.1836V17.082Z" fill="#00A139"/>
</svg>
