<?xml version="1.0" standalone="no"?>
<!DOCTYPE svg PUBLIC "-//W3C//DTD SVG 20010904//EN"
 "http://www.w3.org/TR/2001/REC-SVG-20010904/DTD/svg10.dtd">
<svg version="1.0" xmlns="http://www.w3.org/2000/svg"
 width="319.000000pt" height="319.000000pt" viewBox="0 0 319.000000 319.000000"
 preserveAspectRatio="xMidYMid meet">
<metadata>
Created by potrace 1.14, written by Peter Selinger 2001-2017
</metadata>
<g transform="translate(0.000000,319.000000) scale(0.100000,-0.100000)"
fill="#000000" stroke="none">
<path d="M1974 2688 c-3 -5 -18 -8 -33 -8 -15 0 -31 -3 -35 -7 -4 -5 -11 -8
-14 -9 -36 -4 -81 -18 -77 -23 2 -4 -2 -8 -10 -9 -8 -1 -22 -3 -30 -4 -8 -1
-15 -5 -15 -10 0 -4 -3 -7 -7 -6 -16 4 -78 -15 -107 -33 -17 -10 -50 -29 -73
-41 -24 -12 -43 -26 -43 -30 0 -4 -6 -8 -12 -8 -7 0 -25 -10 -40 -23 -14 -12
-36 -30 -47 -39 -12 -10 -26 -18 -31 -18 -6 0 -10 -4 -10 -10 0 -5 -4 -10 -10
-10 -15 0 -50 -33 -44 -42 3 -4 0 -8 -6 -8 -6 0 -21 -11 -34 -25 -13 -14 -28
-25 -34 -25 -6 0 -14 -9 -17 -20 -3 -11 -11 -20 -16 -20 -5 0 -9 -7 -9 -16 0
-8 -4 -12 -10 -9 -5 3 -10 3 -11 -2 0 -4 -2 -15 -4 -24 -7 -38 12 -40 51 -5
21 20 36 36 32 36 -8 0 48 60 57 60 3 0 13 7 21 15 9 8 12 15 8 15 -6 0 35 39
61 58 6 4 27 19 47 35 20 15 41 27 47 27 6 0 11 4 11 8 0 12 101 63 111 56 5
-3 9 0 9 5 0 6 8 11 19 11 10 0 24 7 31 15 7 8 16 13 20 10 5 -3 11 -1 15 5 4
6 11 8 16 5 5 -4 9 -1 9 5 0 7 7 10 15 6 8 -3 15 -1 15 5 0 6 7 9 15 5 8 -3
15 -1 15 4 0 6 3 9 8 8 4 -1 25 4 47 12 22 7 49 14 60 15 11 1 31 7 45 12 14
6 33 9 42 8 21 -4 32 23 17 41 -12 14 -57 15 -65 2z"/>
<path d="M2010 2588 c0 -4 -8 -7 -17 -7 -26 1 -67 -6 -78 -13 -19 -11 -90 -31
-113 -33 -13 0 -27 -7 -31 -14 -4 -7 -23 -15 -42 -17 -19 -3 -39 -12 -45 -20
-6 -7 -14 -11 -17 -7 -4 3 -7 0 -7 -7 0 -7 -3 -11 -6 -7 -4 3 -15 -4 -26 -16
-11 -12 -17 -16 -13 -9 3 7 -15 -2 -40 -20 -26 -18 -55 -38 -66 -44 -11 -6
-35 -25 -54 -42 -19 -18 -39 -32 -45 -32 -5 0 -10 -3 -10 -7 0 -5 -34 -44 -75
-87 -41 -44 -75 -86 -75 -93 0 -7 -4 -13 -9 -13 -5 0 -13 -10 -17 -22 -3 -12
-15 -31 -25 -42 -19 -20 -27 -52 -10 -42 5 4 12 0 14 -6 4 -9 12 -5 26 12 11
14 21 29 21 33 0 7 54 77 103 131 9 11 17 23 17 28 0 4 4 8 10 8 5 0 23 14 40
30 17 17 28 30 25 30 -3 0 0 6 7 14 7 8 16 12 21 9 4 -2 7 0 7 6 0 5 8 12 18
15 10 4 27 14 38 24 45 41 77 61 87 55 6 -3 7 -1 3 5 -4 7 -1 12 9 12 9 0 30
9 46 21 16 11 29 17 29 13 0 -3 7 -1 15 6 8 6 19 9 25 5 6 -4 9 -1 8 7 -2 8 4
12 15 10 9 -2 17 2 17 8 0 5 9 10 20 10 11 0 20 5 20 11 0 7 13 10 34 7 19 -2
32 0 30 4 -3 4 1 8 8 9 30 1 64 10 90 24 16 7 26 9 23 4 -4 -5 -1 -9 4 -9 6 0
11 5 11 11 0 6 7 9 15 5 11 -4 15 2 15 24 0 26 -4 29 -25 28 -14 -1 -25 -6
-25 -10z"/>
<path d="M2064 2492 c2 -4 -12 -8 -32 -9 -42 -2 -62 -6 -77 -15 -5 -3 -26 -9
-45 -13 -19 -4 -44 -14 -54 -21 -16 -11 -23 -11 -35 -1 -12 9 -13 9 -7 0 5 -9
1 -13 -13 -13 -11 0 -23 -4 -26 -10 -3 -5 -15 -10 -26 -10 -10 0 -19 -4 -19
-10 0 -5 -8 -10 -18 -10 -9 0 -29 -11 -44 -25 -14 -13 -38 -27 -52 -31 -14 -3
-26 -10 -26 -15 0 -5 -5 -9 -11 -9 -7 0 -25 -13 -41 -30 -15 -16 -32 -30 -37
-30 -5 0 -12 -9 -16 -20 -3 -11 -9 -19 -13 -17 -4 1 -26 -17 -48 -40 -23 -24
-40 -43 -38 -43 2 0 -8 -11 -22 -25 -14 -14 -22 -30 -18 -37 4 -6 3 -9 -2 -5
-5 3 -31 -26 -57 -65 -44 -66 -52 -94 -31 -117 6 -6 44 36 44 49 0 5 3 10 8
10 4 0 16 16 27 36 10 19 29 47 41 62 13 14 21 29 18 34 -3 4 1 8 8 8 7 1 22
12 33 26 39 48 84 92 89 86 3 -3 6 0 6 6 0 7 7 12 16 12 8 0 12 5 9 10 -3 6 1
10 9 10 9 0 16 5 16 10 0 6 11 15 25 20 14 5 25 15 25 21 0 7 3 9 7 6 3 -4 11
0 17 9 6 8 18 16 26 17 8 2 41 17 72 35 31 18 67 35 79 37 11 2 26 9 33 14 6
5 23 11 36 13 14 2 30 6 35 9 6 4 18 5 28 4 9 -2 17 0 17 4 0 4 10 8 23 9 37
4 51 7 66 16 8 5 16 3 22 -5 5 -9 9 -10 9 -2 0 17 237 18 258 1 12 -10 14 -10
8 0 -4 7 -1 12 8 12 9 0 16 -4 16 -10 0 -5 3 -9 8 -8 14 5 202 -36 202 -44 0
-4 6 -8 13 -8 7 0 33 -9 56 -21 24 -11 45 -18 47 -16 12 12 -10 57 -27 57 -10
0 -19 4 -19 8 0 5 -6 9 -12 10 -19 1 -40 7 -73 21 -16 7 -37 14 -45 16 -8 2
-15 4 -15 5 0 1 -7 3 -15 5 -8 2 -44 10 -79 18 -65 15 -376 23 -367 9z"/>
<path d="M2086 2393 c-3 -4 -12 -8 -19 -9 -40 -6 -177 -45 -202 -58 -16 -8
-32 -13 -37 -10 -4 3 -8 0 -8 -6 0 -6 -4 -9 -9 -5 -5 3 -17 -3 -27 -12 -10
-10 -19 -17 -21 -16 -6 5 -73 -31 -73 -39 0 -4 -7 -8 -15 -8 -9 0 -18 -7 -21
-15 -4 -8 -12 -15 -19 -15 -8 0 -38 -24 -69 -52 -30 -29 -65 -61 -77 -70 -13
-10 -20 -18 -17 -18 4 0 -9 -17 -28 -37 -19 -21 -37 -46 -40 -56 -3 -9 -10
-15 -15 -12 -8 5 -13 -10 -6 -18 1 -2 -6 -11 -15 -21 -10 -10 -18 -27 -18 -38
0 -12 -3 -18 -7 -15 -13 14 -33 -53 -23 -74 16 -28 23 -24 44 29 11 26 22 49
25 52 12 10 61 79 61 85 0 13 37 54 44 48 3 -3 6 -1 6 5 0 24 139 148 213 191
23 13 45 28 48 33 3 5 8 9 10 9 17 -2 47 13 42 22 -3 5 -2 7 3 4 6 -3 29 3 52
13 24 11 55 21 70 24 15 2 28 5 30 6 1 2 5 3 10 4 17 4 87 20 92 20 3 1 11 5
19 10 11 7 12 6 6 -5 -7 -11 -6 -12 6 -2 17 14 242 17 234 2 -4 -5 -2 -9 4 -9
5 0 11 6 14 13 3 9 8 8 22 -3 10 -8 20 -14 22 -12 2 2 38 -4 81 -14 76 -17
183 -60 234 -96 14 -10 33 -18 41 -18 23 0 9 37 -22 60 -14 11 -31 24 -38 30
-7 5 -19 10 -28 10 -8 0 -23 4 -33 10 -40 22 -215 73 -249 72 -5 0 -12 3 -18
7 -5 4 -57 9 -114 10 -83 2 -102 0 -95 -11 6 -10 4 -11 -7 -2 -16 12 -29 12
-48 0 -10 -6 -12 -5 -7 2 8 13 3 16 -8 5z"/>
<path d="M2156 2293 c-4 -4 -19 -9 -34 -10 -45 -3 -86 -14 -101 -26 -12 -9
-13 -9 -7 1 4 6 2 12 -3 12 -6 0 -11 -4 -11 -9 0 -5 -16 -12 -35 -15 -19 -4
-35 -10 -35 -14 0 -4 -12 -9 -27 -10 -14 -1 -34 -9 -43 -17 -9 -8 -20 -12 -23
-8 -4 3 -7 1 -7 -6 0 -7 -4 -10 -9 -6 -5 3 -12 1 -16 -5 -4 -6 -11 -8 -16 -5
-5 4 -12 0 -15 -8 -3 -9 -18 -20 -34 -27 -16 -7 -31 -18 -34 -27 -3 -8 -10
-11 -16 -8 -6 3 -13 -1 -16 -10 -4 -9 -12 -14 -18 -12 -16 6 -33 -15 -30 -36
2 -15 0 -16 -12 -6 -12 10 -15 10 -12 -2 2 -8 -3 -13 -9 -11 -7 1 -13 -2 -13
-8 0 -5 -18 -28 -40 -50 -22 -22 -37 -40 -34 -40 4 0 1 -6 -5 -13 -6 -8 -7
-18 -3 -22 4 -5 2 -5 -4 -2 -6 3 -18 -3 -27 -14 -12 -13 -13 -19 -4 -19 6 0 4
-5 -6 -11 -9 -6 -15 -14 -12 -20 4 -5 1 -9 -5 -9 -6 0 -9 -4 -6 -9 3 -5 -2
-12 -11 -15 -15 -6 -15 -8 -3 -16 13 -8 12 -10 -2 -10 -17 0 -35 -51 -23 -70
11 -18 31 -11 32 12 1 11 6 24 11 27 15 10 22 41 9 41 -6 0 -1 7 11 16 12 8
22 22 22 30 0 8 5 14 12 14 6 0 9 3 5 6 -3 3 7 20 24 38 16 17 32 39 35 49 3
9 10 17 15 17 5 0 9 5 9 11 0 5 -5 7 -12 3 -7 -4 -8 -3 -4 5 4 6 11 9 16 6 10
-6 72 50 64 58 -3 3 4 8 15 12 12 3 21 11 21 16 0 6 5 7 10 4 6 -3 10 1 10 9
0 9 3 16 8 15 16 -2 52 14 52 24 0 6 3 7 7 4 3 -4 11 3 18 16 6 12 17 21 24
19 6 -1 22 3 34 10 12 7 25 13 30 14 4 1 10 3 15 4 4 1 10 2 15 1 4 0 7 4 7 9
0 6 12 10 26 10 14 0 23 4 19 10 -3 6 -2 10 4 10 5 0 12 -6 14 -12 4 -10 6
-10 6 0 1 6 10 12 21 12 11 0 20 6 20 13 0 8 4 7 10 -3 9 -14 15 -7 10 15 -1
6 4 5 10 -1 8 -8 24 -9 48 -3 49 11 282 7 274 -5 -3 -5 2 -7 10 -3 9 3 21 0
27 -6 8 -8 11 -7 11 4 0 10 2 11 8 2 5 -7 20 -14 35 -15 15 -1 27 -6 27 -10 0
-4 11 -8 25 -8 14 0 25 -6 25 -12 0 -10 3 -9 9 1 5 7 10 9 12 5 2 -5 31 -22
64 -38 33 -17 65 -36 71 -44 6 -9 18 -12 27 -9 11 4 14 2 10 -9 -3 -8 1 -14 9
-14 8 0 23 -9 33 -20 10 -11 22 -17 28 -13 5 3 7 1 4 -4 -4 -6 14 -28 38 -49
25 -21 45 -44 45 -51 0 -7 5 -13 10 -13 6 0 10 -5 10 -10 0 -6 11 -21 25 -34
13 -13 22 -26 18 -29 -3 -4 -1 -7 5 -7 7 0 12 -7 12 -15 0 -8 5 -15 10 -15 6
0 10 -9 10 -20 0 -11 4 -20 9 -20 9 0 28 -44 20 -46 -2 0 2 -8 10 -17 7 -10
10 -17 6 -17 -5 0 0 -9 11 -21 10 -12 18 -23 17 -25 -9 -13 -1 -34 12 -34 24
0 30 48 9 72 -13 14 -14 19 -4 13 12 -6 13 -5 3 6 -7 7 -13 21 -13 31 0 10 -3
18 -7 18 -5 0 -17 12 -27 27 -11 14 -14 23 -8 19 14 -8 -18 55 -33 66 -5 4 -6
8 -1 8 4 0 -6 12 -23 27 -17 15 -31 32 -31 37 0 11 -149 156 -161 156 -5 0
-18 9 -29 20 -12 12 -26 18 -32 14 -7 -4 -8 -3 -4 4 3 6 -3 16 -14 22 -11 6
-20 8 -20 5 0 -4 -7 1 -16 10 -9 9 -23 14 -31 11 -8 -3 -11 -1 -8 4 6 9 -8 14
-27 11 -5 0 -8 4 -8 10 0 5 -4 8 -9 4 -5 -3 -12 -1 -16 5 -4 6 -11 8 -16 5 -5
-4 -9 -1 -9 6 0 6 -8 9 -20 6 -11 -3 -18 -1 -14 4 5 8 -18 13 -53 12 -7 -1
-10 3 -7 8 3 5 -1 9 -8 10 -7 0 -22 2 -33 4 -11 3 -41 6 -67 7 -27 2 -48 7
-48 11 0 4 -8 3 -18 -2 -13 -7 -23 -6 -30 1 -9 9 -12 9 -12 0 0 -7 -5 -12 -11
-12 -5 0 -7 6 -3 13 5 8 2 8 -9 -2 -13 -10 -17 -10 -17 -1 0 9 -4 9 -17 -1
-11 -10 -14 -10 -9 -1 8 13 4 16 -8 5z"/>
<path d="M2190 2190 c0 -3 -17 -6 -37 -4 -21 1 -48 -2 -60 -7 -14 -5 -23 -4
-27 4 -3 9 -5 9 -5 0 -1 -7 -10 -13 -22 -13 -11 0 -18 -4 -15 -9 3 -4 -6 -7
-19 -5 -14 1 -25 -1 -25 -5 0 -4 -8 -7 -17 -7 -24 -1 -47 -8 -53 -15 -3 -4
-30 -19 -60 -34 -30 -15 -73 -43 -96 -61 -23 -19 -44 -34 -48 -34 -7 0 -126
-121 -128 -130 -2 -11 -52 -85 -60 -91 -5 -3 -9 -9 -9 -13 1 -3 -6 -20 -14
-36 -9 -17 -13 -30 -9 -30 4 0 1 -7 -7 -16 -7 -9 -13 -23 -14 -33 -2 -28 38
-20 54 11 7 15 17 25 22 22 5 -3 9 -2 8 3 -3 20 2 43 14 55 6 7 14 22 15 33 2
11 17 32 33 47 17 16 27 33 23 40 -4 6 -3 8 3 5 6 -4 18 5 27 18 9 14 21 23
26 20 5 -3 12 4 15 16 4 12 12 18 21 15 8 -3 13 0 11 7 -1 7 4 11 11 9 6 -1
11 1 11 5 -4 22 3 32 16 27 10 -4 15 0 15 12 0 9 3 15 6 11 3 -3 15 3 26 13
12 10 34 22 49 25 18 4 26 11 22 18 -4 6 0 8 9 4 9 -3 20 -1 26 5 8 8 16 7 27
-2 13 -11 14 -10 8 6 -6 17 -5 18 12 4 10 -8 16 -10 12 -3 -4 6 -3 14 3 18 5
3 10 0 10 -7 0 -10 2 -10 9 1 5 7 20 14 35 14 14 0 23 3 21 8 -3 4 6 6 21 3
18 -3 23 -1 18 7 -5 9 -1 10 14 7 13 -4 22 -1 22 5 0 8 3 8 8 2 8 -12 44 -17
37 -5 -3 4 6 8 20 8 14 0 22 -5 19 -10 -4 -6 3 -5 15 2 16 8 26 8 35 1 9 -7
16 -7 24 1 8 8 12 8 12 1 0 -6 10 -10 22 -9 13 0 23 -4 23 -11 0 -6 4 -15 8
-20 5 -4 7 -2 5 6 -1 7 3 16 10 18 6 3 12 0 12 -7 0 -6 4 -9 8 -6 5 3 21 -2
36 -10 32 -16 49 -19 26 -4 -13 9 -13 10 0 10 21 -1 51 -25 42 -36 -4 -4 0 -3
8 3 11 9 20 8 34 -3 11 -8 28 -14 38 -14 10 0 21 -7 24 -15 4 -8 10 -12 15 -9
12 7 11 -9 -1 -24 -7 -9 -7 -9 2 -2 20 16 38 12 31 -7 -6 -16 -5 -16 10 -4 15
12 17 12 11 -4 -5 -13 -4 -16 4 -11 7 4 12 2 12 -4 0 -6 4 -9 9 -5 5 3 13 0
17 -6 4 -8 3 -9 -4 -5 -7 4 -12 2 -12 -4 0 -6 8 -10 18 -8 19 3 22 -1 22 -24
0 -9 -4 -8 -10 2 -5 8 -10 10 -10 4 0 -6 8 -18 17 -25 10 -8 14 -9 10 -2 -4 6
-3 14 2 17 5 3 12 -1 15 -10 3 -8 10 -13 15 -10 5 4 17 -12 27 -33 10 -22 21
-38 26 -35 4 3 8 -2 8 -10 0 -9 8 -16 18 -17 12 0 13 -2 3 -6 -10 -4 -5 -10
15 -19 25 -12 26 -13 4 -8 -24 5 -23 4 5 -15 17 -12 26 -21 21 -21 -5 0 -1 -9
9 -20 15 -17 16 -22 4 -37 -12 -14 -12 -16 0 -8 11 6 13 4 8 -8 -4 -10 -2 -16
6 -14 7 1 12 -10 12 -30 0 -17 4 -35 9 -40 5 -5 6 -2 1 6 -5 10 -4 12 4 7 6
-4 9 -11 7 -15 -3 -4 4 -12 14 -19 15 -9 21 -7 34 13 20 31 20 39 0 31 -13 -5
-14 -3 -6 7 8 10 6 20 -8 42 -10 16 -17 32 -14 37 3 4 2 8 -3 8 -4 0 -14 15
-22 33 -8 17 -21 41 -30 51 -13 16 -13 18 -1 12 9 -4 8 -2 -2 7 -10 8 -18 23
-18 33 0 16 -2 17 -10 4 -8 -12 -10 -9 -10 13 0 15 -4 27 -10 27 -5 0 -10 6
-10 14 0 8 -5 18 -12 22 -7 5 -9 2 -4 -7 4 -8 0 -5 -8 5 -9 11 -16 24 -16 29
0 4 -4 5 -10 2 -5 -3 -10 -3 -10 2 0 13 -42 57 -80 83 -19 13 -41 30 -48 37
-7 7 -20 13 -28 13 -8 0 -12 5 -9 10 4 6 3 10 -2 9 -15 -4 -63 13 -63 22 0 5
-3 8 -7 8 -21 -3 -34 2 -28 11 4 6 3 10 -2 9 -19 -4 -92 14 -87 22 3 5 -2 6
-11 3 -8 -4 -22 -1 -30 6 -8 7 -22 10 -30 6 -8 -3 -15 -2 -15 3 0 4 -18 7 -40
6 -22 -1 -40 1 -40 4 0 4 -9 7 -20 7 -11 0 -20 -4 -20 -9 0 -4 -6 -5 -12 -1
-16 10 -48 13 -48 4z"/>
<path d="M2107 2084 c3 -8 2 -14 -3 -13 -26 5 -45 -2 -38 -13 5 -8 0 -7 -11 2
-12 10 -16 10 -11 2 6 -10 1 -12 -21 -9 -21 3 -31 -1 -40 -17 -7 -12 -12 -15
-13 -7 0 11 -3 11 -15 1 -8 -6 -19 -9 -24 -6 -5 4 -14 -2 -20 -11 -6 -10 -11
-14 -11 -10 0 4 -10 -1 -22 -13 -12 -11 -27 -20 -34 -20 -6 0 -15 -7 -18 -16
-3 -8 -10 -12 -16 -9 -5 3 -10 1 -10 -5 0 -6 -3 -9 -7 -7 -10 6 -34 -19 -26
-27 4 -3 -1 -6 -9 -6 -8 0 -23 -11 -34 -24 -10 -14 -22 -22 -27 -19 -6 3 -7 1
-3 -5 3 -6 -2 -19 -12 -29 -20 -20 -56 -74 -57 -85 0 -4 -8 -16 -17 -27 -17
-20 -10 -35 17 -36 13 -1 35 21 35 34 0 6 5 11 11 11 5 0 8 4 5 9 -4 5 15 31
41 58 26 26 47 50 47 53 -1 3 9 15 22 28 13 12 24 20 24 17 0 -4 7 1 16 9 8 9
20 13 26 10 7 -4 8 -2 4 4 -4 7 -1 12 8 12 9 0 16 7 16 15 0 8 6 12 14 9 8 -3
17 0 22 7 5 8 3 10 -6 4 -9 -5 -11 -4 -6 3 4 7 18 12 32 12 13 0 24 5 24 11 0
5 5 7 11 3 6 -3 14 -2 18 4 3 5 20 12 36 13 17 2 32 7 35 11 3 4 24 9 45 11
22 1 45 5 50 8 24 13 223 -4 235 -19 3 -4 12 -7 20 -7 8 1 25 -4 37 -11 13 -9
23 -10 25 -3 2 5 13 1 26 -11 12 -11 22 -18 22 -14 0 3 6 1 13 -5 8 -6 17 -8
20 -4 4 3 7 1 7 -6 0 -8 7 -11 15 -7 8 3 15 1 15 -5 0 -13 25 -39 38 -39 12 0
67 -48 67 -58 0 -5 17 -25 38 -45 20 -20 37 -41 37 -46 0 -5 4 -11 9 -13 5 -1
11 -10 13 -18 2 -8 5 -17 8 -20 14 -14 38 -70 27 -64 -6 4 -5 -1 4 -12 22 -27
42 -81 34 -93 -3 -6 0 -11 7 -11 10 0 10 -2 -1 -9 -9 -6 -10 -11 -2 -15 6 -4
8 -12 5 -18 -4 -7 -2 -8 4 -4 7 4 12 2 12 -5 0 -9 3 -9 14 0 18 15 27 61 12
61 -6 0 -4 4 4 10 12 8 12 10 -2 15 -9 4 -14 13 -12 20 3 7 0 16 -6 20 -8 5
-7 11 2 23 10 12 10 14 1 8 -8 -4 -13 -1 -13 8 0 24 -2 30 -17 45 -8 7 -12 19
-9 26 2 7 -4 15 -15 18 -13 4 -17 10 -12 23 4 12 3 15 -5 10 -7 -4 -12 -3 -12
3 0 5 -7 17 -16 26 -9 8 -17 26 -18 39 0 13 -6 22 -12 19 -11 -4 -70 58 -66
70 1 5 -1 6 -6 3 -4 -2 -14 -1 -22 5 -13 7 -13 9 0 9 8 1 -1 7 -20 14 -19 6
-34 18 -32 25 1 7 -2 10 -7 7 -5 -4 -17 2 -27 11 -10 10 -20 17 -23 16 -10 -4
-41 8 -41 16 0 4 6 13 13 21 10 12 9 12 -4 2 -9 -6 -20 -8 -24 -4 -5 4 -5 1
-1 -5 5 -9 2 -11 -8 -7 -9 3 -16 10 -16 16 0 5 -4 6 -10 3 -5 -3 -10 0 -10 7
0 9 -3 9 -10 -2 -7 -11 -10 -12 -10 -2 0 9 -7 11 -20 7 -14 -5 -18 -2 -15 7 4
10 -3 13 -22 12 -16 -1 -34 4 -42 10 -11 8 -13 8 -7 -1 4 -7 2 -13 -3 -13 -6
0 -11 4 -11 10 0 5 -23 8 -50 6 -28 -2 -53 1 -56 5 -3 5 -10 7 -15 3 -5 -3
-21 -7 -35 -10 -19 -3 -24 -1 -19 8 4 7 0 5 -8 -4 -15 -18 -33 -25 -23 -9 3 5
-1 11 -9 14 -9 4 -12 1 -8 -9z"/>
<path d="M2576 2028 c3 -5 10 -6 15 -3 13 9 11 12 -6 12 -8 0 -12 -4 -9 -9z"/>
<path d="M2148 1981 c-1 -6 -20 -11 -40 -13 -21 -1 -38 -6 -38 -10 0 -5 -11
-6 -25 -4 -14 3 -23 1 -21 -3 3 -4 -10 -14 -29 -21 -19 -8 -35 -17 -35 -21 0
-4 -9 -6 -20 -4 -11 2 -18 1 -16 -4 3 -4 -4 -13 -16 -20 -16 -10 -19 -10 -13
1 5 7 -1 4 -13 -7 -11 -11 -43 -42 -71 -68 -28 -27 -51 -52 -51 -57 0 -5 -8
-17 -18 -27 -26 -26 -22 -47 10 -48 15 -1 25 1 23 5 -6 10 50 80 79 100 13 8
31 23 40 33 10 9 22 15 27 12 5 -4 9 1 9 9 0 9 7 16 15 16 8 0 15 4 15 9 0 11
85 41 116 41 13 0 26 5 29 10 5 8 12 7 23 -2 12 -10 14 -10 8 0 -8 13 11 15
128 14 39 -1 75 -7 84 -14 13 -11 14 -11 7 2 -7 12 -6 13 6 3 8 -6 27 -13 41
-15 15 -2 30 -7 34 -10 3 -4 12 -4 20 -1 8 3 14 0 14 -6 0 -6 7 -11 15 -11 8
0 15 -4 15 -10 0 -5 7 -10 15 -10 7 0 19 -8 24 -17 6 -10 11 -14 11 -10 0 14
40 -14 40 -28 0 -8 4 -15 9 -15 13 0 56 -43 76 -78 11 -18 23 -32 27 -32 4 0
5 -7 2 -15 -4 -8 -1 -15 5 -15 6 0 11 -7 11 -15 0 -8 5 -15 12 -15 6 0 8 -3 5
-7 -4 -3 -2 -11 3 -18 5 -6 11 -20 13 -31 1 -10 5 -23 8 -29 3 -5 6 -26 8 -45
2 -19 8 -38 15 -42 7 -5 6 -8 -4 -8 -9 0 -11 -3 -5 -8 15 -11 17 -32 4 -48 -9
-11 -9 -14 1 -14 10 0 10 -3 1 -14 -6 -8 -11 -18 -10 -22 5 -29 -2 -54 -13
-48 -10 6 -10 5 -1 -7 10 -12 9 -21 -2 -42 -10 -19 -10 -25 -2 -21 7 4 3 -2
-7 -14 -11 -12 -16 -22 -12 -22 4 0 0 -7 -8 -16 -9 -8 -16 -22 -16 -31 0 -21
-60 -94 -71 -88 -5 4 -6 0 -3 -8 3 -9 -4 -21 -15 -29 -12 -8 -18 -18 -14 -22
4 -4 -1 -4 -11 0 -13 5 -17 4 -13 -3 7 -10 -19 -28 -35 -25 -5 1 -8 -2 -8 -7
0 -5 -16 -19 -35 -31 -26 -16 -34 -28 -33 -46 2 -18 8 -24 25 -24 12 0 25 5
28 10 3 6 15 10 26 10 13 0 18 4 13 12 -4 6 -3 8 3 5 6 -4 16 0 23 8 7 8 19
15 27 15 8 0 11 4 8 10 -3 5 1 10 10 10 9 0 13 4 10 10 -3 6 1 7 10 4 11 -5
14 -2 9 12 -5 15 -4 16 4 5 9 -12 12 -10 17 12 4 15 11 27 16 27 5 0 8 6 6 13
-1 6 3 11 10 10 7 -2 10 3 8 10 -7 18 21 50 37 42 10 -6 10 -5 1 5 -10 11 -9
16 5 27 11 9 11 12 2 7 -11 -6 -11 -2 2 13 10 11 19 32 20 46 1 15 7 27 12 27
5 0 7 2 4 5 -3 3 0 33 7 68 12 65 14 215 2 233 -3 6 -8 26 -9 43 -1 18 -6 35
-10 37 -4 3 -8 14 -8 25 0 10 -4 19 -10 19 -5 0 -10 8 -10 18 0 10 -9 28 -20
40 -11 12 -20 26 -20 32 0 5 -4 10 -10 10 -5 0 -10 6 -10 14 0 8 -16 29 -36
48 -20 18 -52 47 -70 65 -19 17 -47 37 -64 45 -16 7 -30 16 -30 20 0 5 -9 8
-20 8 -11 0 -20 5 -20 11 0 6 -7 9 -15 5 -10 -3 -15 1 -15 12 0 13 -2 14 -9 3
-7 -11 -11 -10 -20 5 -6 11 -11 14 -11 8 0 -6 -7 -11 -15 -11 -8 0 -12 4 -9 9
3 4 -1 8 -8 9 -48 2 -88 8 -108 14 -17 5 -21 4 -15 -5 6 -9 4 -11 -5 -5 -19
12 -60 13 -60 2 0 -5 -6 -4 -14 2 -9 7 -15 8 -18 2z"/>
<path d="M2224 1893 c4 -7 5 -13 2 -13 -2 0 -13 -3 -23 -6 -15 -5 -16 -4 -3 6
12 9 9 10 -15 5 -16 -3 -43 -8 -60 -11 -16 -3 -32 -9 -35 -13 -7 -11 -67 -30
-74 -24 -3 4 -6 1 -6 -5 0 -7 -7 -12 -15 -12 -8 0 -15 -5 -15 -12 0 -6 -3 -9
-6 -5 -4 3 -15 -4 -26 -16 -11 -12 -17 -15 -13 -7 4 10 2 9 -8 -2 -8 -10 -20
-18 -27 -18 -7 0 -10 -7 -6 -16 4 -12 2 -15 -9 -10 -12 4 -13 2 -6 -12 6 -12
6 -23 -1 -33 -8 -11 -9 -11 -4 4 8 26 -8 20 -21 -9 -10 -21 -9 -23 1 -15 7 6
16 8 20 3 4 -4 12 1 17 11 6 9 17 17 25 17 8 0 12 5 9 10 -3 6 0 10 8 10 8 0
22 9 32 20 10 12 25 18 32 15 8 -2 12 -1 9 4 -5 8 29 25 47 22 4 -1 7 4 7 10
0 5 5 7 10 4 6 -3 17 1 26 9 16 16 60 20 189 17 43 -1 64 -6 73 -18 8 -12 12
-13 12 -4 0 11 3 11 15 1 8 -7 15 -9 15 -4 0 5 5 2 10 -6 5 -8 14 -16 20 -16
5 -1 12 -3 15 -4 3 -1 9 -3 14 -4 5 0 21 -13 36 -28 15 -15 31 -25 36 -22 5 3
8 2 7 -3 -2 -4 0 -8 5 -8 4 0 16 -15 27 -33 13 -21 25 -30 33 -26 7 5 5 0 -3
-11 -9 -11 -10 -16 -2 -11 7 4 12 1 12 -8 0 -9 5 -16 11 -16 5 0 8 -4 5 -9 -3
-5 1 -14 9 -21 8 -7 12 -16 9 -22 -3 -5 0 -15 6 -23 7 -8 9 -15 4 -15 -5 0 -3
-4 4 -9 8 -4 14 -31 15 -64 1 -30 6 -53 11 -50 5 4 6 0 1 -8 -5 -7 -10 -25
-11 -39 -2 -37 -13 -89 -23 -108 -45 -95 -101 -188 -101 -168 0 3 -8 -2 -19
-11 -10 -10 -29 -26 -42 -35 -13 -10 -19 -18 -14 -18 6 0 -10 -9 -35 -21 -25
-11 -53 -25 -64 -31 -14 -7 -16 -7 -10 4 6 10 4 10 -7 2 -8 -5 -30 -11 -49
-13 -19 -2 -38 -8 -41 -13 -4 -7 -9 -6 -14 1 -5 9 -11 9 -22 0 -9 -8 -17 -9
-21 -3 -4 5 -28 10 -54 11 -40 2 -48 0 -48 -15 0 -9 8 -22 18 -28 15 -9 103
-9 197 -1 36 3 97 27 107 41 5 7 8 6 8 -2 0 -10 4 -9 16 2 8 9 19 14 24 11 5
-3 11 1 13 7 4 9 6 8 7 -2 0 -10 6 -6 15 10 8 14 14 19 15 13 0 -7 4 -13 10
-13 5 0 7 7 4 15 -4 10 0 15 11 15 9 0 14 4 11 9 -10 15 25 22 42 9 13 -11 14
-11 7 2 -21 34 -14 45 25 41 9 -1 11 1 5 6 -10 7 -11 21 -5 41 1 4 2 10 1 14
0 4 6 5 15 1 9 -3 14 0 12 8 -2 8 2 13 9 12 7 -2 10 3 7 11 -3 8 1 20 9 27 8
7 12 22 9 33 -4 14 -2 17 9 11 12 -8 12 -6 0 8 -10 12 -10 17 -2 17 8 0 10 8
6 19 -3 11 0 23 6 27 7 4 9 3 5 -4 -3 -6 -2 -14 4 -17 6 -4 10 -3 9 2 -3 20 2
34 11 28 6 -3 7 1 3 10 -5 13 -7 14 -14 3 -6 -9 -8 -6 -6 9 2 12 6 26 10 29
11 11 8 26 -3 19 -11 -7 -14 8 -3 19 14 14 12 38 -3 32 -11 -4 -12 -1 -6 12
12 22 4 44 -11 35 -7 -4 -5 2 3 12 14 17 13 18 -4 12 -14 -6 -17 -4 -12 9 3 9
3 21 -1 27 -4 7 -9 23 -11 37 -2 13 -7 30 -13 36 -5 6 -5 15 -1 19 4 5 2 5 -4
2 -7 -4 -18 1 -25 10 -12 14 -12 16 1 9 9 -4 8 -1 -2 7 -10 8 -18 19 -18 26 0
6 -4 11 -10 11 -5 0 -10 7 -10 16 0 8 -4 12 -10 9 -6 -3 -10 4 -10 17 0 16 -3
19 -8 10 -6 -9 -12 -6 -20 12 -6 13 -29 32 -51 42 -23 10 -41 21 -41 26 0 4
-7 8 -15 8 -8 0 -15 4 -15 8 0 4 -10 9 -22 9 -13 1 -24 6 -26 11 -2 6 -13 8
-25 5 -18 -4 -19 -3 -7 6 13 9 13 11 -2 11 -9 0 -18 3 -21 8 -2 4 -2 2 -1 -5
2 -7 -3 -10 -12 -6 -7 3 -14 9 -14 14 0 5 -5 9 -11 9 -5 0 -8 -4 -5 -9 8 -13
-43 -4 -61 11 -12 9 -15 9 -9 1z"/>
<path d="M3079 1874 c-9 -11 -10 -17 -2 -22 6 -4 15 -20 18 -35 4 -15 11 -30
16 -33 5 -3 9 -16 9 -29 0 -17 4 -23 15 -19 26 10 27 42 3 94 -25 55 -40 66
-59 44z"/>
<path d="M2750 1876 c0 -2 9 -6 20 -9 11 -3 18 -1 14 4 -5 9 -34 13 -34 5z"/>
<path d="M350 1752 c0 -5 -13 -8 -29 -6 -24 3 -30 -1 -35 -22 -4 -14 -4 -30 0
-36 4 -5 0 -14 -7 -19 -8 -5 -9 -9 -3 -9 12 0 13 -78 1 -97 -4 -6 -2 -15 4
-19 8 -4 7 -9 -2 -15 -12 -7 -12 -9 0 -9 7 0 11 -6 7 -15 -4 -11 2 -15 24 -15
17 0 29 3 29 8 -1 4 -1 51 0 105 l1 98 38 -2 c81 -4 92 -1 92 27 0 14 -4 22
-10 19 -5 -3 -18 -2 -28 4 -10 5 -24 6 -32 1 -8 -5 -22 -4 -32 1 -10 6 -18 6
-18 1z"/>
<path d="M510 1750 c0 -6 -4 -9 -9 -6 -12 8 -19 -12 -16 -49 1 -16 -3 -33 -9
-37 -7 -5 -8 -8 -1 -8 7 0 10 -26 9 -67 -1 -38 1 -74 3 -80 5 -14 54 -18 52
-5 -1 4 -1 22 0 40 1 31 3 32 41 32 37 0 40 -2 31 -19 -16 -29 20 -61 67 -60
20 0 31 3 25 6 -7 2 -13 10 -13 17 0 6 -9 18 -20 26 -21 15 -27 40 -10 40 15
0 49 59 45 78 -2 10 -4 20 -4 23 -4 29 -81 75 -108 65 -7 -3 -13 0 -13 7 0 7
-3 8 -8 2 -8 -12 -32 -13 -49 -2 -8 5 -13 3 -13 -3z m120 -60 c8 -5 11 -10 7
-10 -4 0 -3 -8 2 -18 13 -24 -15 -42 -64 -42 -33 0 -35 2 -35 33 0 19 3 37 7
40 10 10 66 8 83 -3z"/>
<path d="M1179 1716 c-14 -22 -33 -67 -44 -98 -10 -32 -23 -58 -27 -58 -4 0
-8 -12 -8 -26 0 -14 -4 -23 -8 -20 -5 3 -9 -1 -9 -9 0 -22 54 -19 66 4 6 10 8
20 6 23 -2 2 24 4 58 4 59 0 87 -11 87 -35 0 -6 13 -11 29 -11 27 0 29 3 25
27 -3 15 -14 42 -24 59 -11 17 -17 34 -13 37 3 4 1 7 -5 7 -7 0 -12 8 -12 18
0 10 -9 28 -21 41 -16 17 -24 20 -35 10 -9 -7 -14 -8 -14 -1 0 6 5 14 10 17
17 11 11 31 -13 42 -21 10 -26 7 -48 -31z m67 -122 c-3 -7 -15 -9 -31 -6 -23
4 -26 8 -20 31 12 49 27 56 42 20 8 -18 12 -38 9 -45z"/>
<path d="M104 1742 c-6 -4 -19 -28 -30 -54 -10 -25 -22 -44 -26 -42 -7 5 -13
-27 -9 -48 0 -5 -3 -8 -9 -8 -5 0 -10 -7 -10 -16 0 -8 -3 -13 -8 -11 -4 3 -8
-12 -9 -34 -2 -35 0 -39 21 -39 20 0 41 22 38 40 0 3 28 5 63 6 57 1 65 -2 76
-23 16 -29 75 -35 61 -5 -20 39 -52 115 -57 132 -11 40 -19 50 -42 50 -23 0
-25 -3 -21 -32 3 -18 8 -40 12 -49 9 -20 -19 -30 -49 -18 -11 4 -15 8 -10 8 6
1 12 11 12 23 1 13 7 24 13 26 5 2 7 8 4 13 -3 6 -1 16 6 24 20 25 22 61 2 62
-10 1 -23 -2 -28 -5z"/>
<path d="M727 1732 c-3 -9 -4 -66 -3 -127 l1 -110 30 -3 30 -3 0 126 c0 69 -2
125 -5 126 -3 0 -15 2 -27 5 -15 2 -23 -2 -26 -14z"/>
<path d="M905 1742 c-32 -7 -85 -51 -85 -72 0 -10 -4 -21 -8 -24 -7 -4 -8 -45
-2 -53 3 -3 4 -7 15 -39 10 -32 88 -67 133 -60 20 3 43 7 50 8 6 1 12 5 12 10
0 4 7 8 17 8 9 0 13 3 10 6 -3 4 -2 14 2 23 8 14 5 21 -19 42 -3 2 -16 -6 -29
-18 -25 -23 -61 -36 -61 -22 0 4 -6 6 -12 4 -33 -12 -86 73 -57 91 5 3 7 10 4
15 -4 5 1 9 9 9 9 0 16 4 16 8 0 5 22 8 49 8 27 0 47 -4 45 -8 -6 -9 33 -21
46 -13 17 10 11 30 -16 54 -24 21 -79 32 -119 23z"/>
<path d="M362 1619 c9 -26 15 -30 41 -27 20 2 31 9 33 21 1 9 -2 15 -7 11 -5
-3 -9 2 -9 10 0 12 -10 16 -34 16 -35 0 -35 0 -24 -31z"/>
<path d="M73 1353 c6 -9 -4 -11 -33 -9 l-40 3 0 -128 c0 -122 1 -129 20 -129
20 0 21 4 22 112 1 16 5 25 11 21 6 -4 7 -1 1 8 -15 24 -12 60 7 69 24 13 77
-7 85 -33 8 -25 -21 -50 -49 -43 -10 2 -21 -2 -24 -10 -3 -8 -9 -11 -15 -8 -5
3 -4 -3 3 -14 7 -12 20 -22 29 -24 44 -11 121 32 115 64 -2 10 0 18 5 18 5 0
10 -35 12 -77 l3 -78 35 -2 c19 -1 29 0 22 3 -6 3 -9 11 -5 17 8 13 10 18 12
41 2 25 49 14 56 -13 8 -32 33 -50 67 -51 26 0 27 2 16 25 -6 14 -15 25 -20
25 -5 0 -7 4 -4 9 4 5 1 11 -5 13 -5 2 1 17 15 33 31 36 33 69 6 113 -18 29
-41 39 -74 33 -5 -1 -13 4 -17 11 -6 8 -9 9 -9 2 0 -6 -11 -11 -25 -11 -14 0
-22 4 -18 10 4 6 1 7 -8 1 -14 -9 -19 -10 -39 -13 -5 0 -11 -20 -11 -43 -1
-24 -3 -35 -6 -25 -2 9 -9 17 -14 17 -6 0 -8 4 -5 8 9 15 -33 42 -66 44 -18 1
-39 6 -47 12 -11 8 -13 8 -8 -1z m268 -52 c0 10 2 11 6 2 2 -7 11 -13 18 -13
19 0 27 -28 13 -49 -12 -19 -87 -29 -89 -11 -5 40 -2 65 9 63 7 -2 12 2 12 8
0 8 5 8 15 -1 12 -10 15 -10 16 1z"/>
<path d="M1090 1354 c0 -6 -16 -10 -37 -9 -56 3 -60 -1 -58 -55 1 -31 -2 -47
-8 -43 -6 3 -7 2 -4 -4 12 -19 18 -75 7 -68 -7 4 -7 -2 0 -19 6 -17 6 -27 -1
-32 -16 -10 10 -34 37 -34 24 0 24 2 24 94 0 113 4 130 31 115 14 -7 19 -6 19
3 0 10 2 10 9 0 4 -8 12 -13 17 -12 5 1 13 -6 19 -14 15 -25 -7 -50 -49 -56
-20 -3 -38 -8 -39 -11 -5 -15 35 -45 56 -43 12 1 30 3 40 3 10 1 15 6 12 11
-3 6 0 10 8 10 14 0 32 27 29 43 -1 4 2 7 7 7 6 0 9 9 8 20 -1 11 -5 20 -9 20
-4 0 -8 6 -8 13 0 19 -36 46 -67 49 -15 2 -31 8 -35 13 -5 6 -8 6 -8 -1z"/>
<path d="M1244 1352 c3 -5 1 -12 -4 -14 -9 -3 -14 -109 -10 -230 0 -16 11 -18
79 -18 95 0 111 5 104 31 -5 16 -14 19 -68 19 l-63 0 2 78 c1 74 2 77 24 75
16 -2 21 1 16 10 -5 8 -2 8 9 -2 14 -11 17 -11 17 0 0 9 3 10 8 4 10 -14 32
-17 32 -5 0 5 7 10 15 10 9 0 12 6 9 15 -4 8 -12 15 -20 15 -8 0 -14 6 -14 13
0 7 -3 8 -8 2 -11 -16 -34 -17 -43 -3 -6 8 -9 9 -9 2 0 -13 -50 -12 -70 1 -8
5 -11 4 -6 -3z"/>
<path d="M1474 1352 c5 -9 3 -13 -5 -11 -28 3 -36 -1 -34 -21 1 -11 4 -22 7
-26 4 -3 3 -17 -2 -30 -6 -14 -6 -26 0 -29 6 -3 6 -15 0 -30 -6 -15 -6 -27 0
-30 6 -4 7 -13 1 -23 -14 -27 4 -62 32 -60 24 2 29 21 12 47 -5 9 -4 12 2 8 6
-4 13 -1 16 7 3 7 15 13 26 12 12 0 20 -3 19 -6 -1 -3 7 -20 17 -37 16 -27 26
-33 52 -33 23 0 33 5 33 15 0 8 -4 15 -10 15 -5 0 -10 6 -10 14 0 8 -10 18
-21 21 -16 6 -18 9 -8 15 7 5 17 6 23 3 5 -3 6 -1 3 4 -4 6 0 16 8 23 8 7 15
24 15 39 0 20 2 23 10 11 15 -23 12 -6 -4 26 -8 15 -12 32 -9 38 3 6 2 8 -2 3
-5 -4 -16 0 -26 9 -9 8 -31 16 -48 16 -17 1 -31 6 -31 12 0 7 -3 7 -8 1 -11
-16 -33 -17 -50 -3 -13 11 -14 11 -8 0z m117 -74 c5 -27 3 -34 -11 -45 -31
-25 -119 -5 -93 21 4 4 8 15 8 24 0 12 8 17 28 16 15 0 27 4 27 8 0 10 39 -14
41 -24z"/>
<path d="M1701 1352 c-1 -7 -5 -10 -11 -7 -9 5 -12 -48 -12 -200 0 -14 0 -32
1 -40 1 -22 48 -19 61 4 13 26 13 34 -2 25 -9 -5 -9 -2 1 9 11 14 11 17 0 17
-10 0 -10 3 -1 12 14 14 16 32 3 23 -6 -3 -6 7 0 27 11 41 11 41 -3 32 -9 -5
-9 -2 1 9 11 14 11 17 0 17 -10 0 -10 3 -1 12 14 14 16 32 2 23 -6 -3 -7 1 -4
9 4 10 1 16 -9 16 -8 0 -18 6 -20 13 -4 9 -6 9 -6 -1z"/>
<path d="M1795 1351 c6 -11 4 -13 -9 -8 -25 10 -34 -23 -11 -39 24 -17 39 -18
29 -1 -6 9 -5 9 8 0 8 -7 17 -11 20 -8 4 5 9 -48 8 -90 -2 -40 -2 -90 -1 -102
0 -7 12 -13 26 -13 14 0 26 6 26 13 1 6 2 61 3 120 2 91 0 110 -13 115 -9 3
-19 10 -23 16 -6 8 -8 8 -8 0 0 -14 -31 -14 -49 0 -12 9 -13 8 -6 -3z"/>
<path d="M1907 1354 c-7 -7 3 -35 19 -51 15 -15 28 -17 19 -3 -3 6 1 7 9 4 23
-9 31 22 12 41 -9 9 -16 13 -16 8 0 -5 -9 -9 -20 -10 -11 -1 -18 2 -15 8 7 10
2 12 -8 3z"/>
<path d="M2221 1354 c0 -7 -7 -12 -13 -11 -36 1 -48 -5 -48 -23 0 -11 -3 -20
-8 -20 -4 0 -13 -13 -20 -30 -11 -25 -16 -28 -27 -16 -7 7 -20 29 -29 50 -8
20 -21 36 -28 37 -7 0 -21 2 -30 4 -10 2 -20 0 -23 -5 -6 -10 21 -64 40 -80 8
-7 15 -18 15 -26 0 -7 4 -15 9 -18 14 -9 42 5 34 17 -3 6 -1 7 5 3 9 -5 8 -13
-2 -29 -13 -20 -20 -57 -17 -99 1 -13 9 -18 31 -18 17 0 30 6 31 13 1 6 2 26
4 43 2 28 51 129 77 161 5 7 8 22 5 35 -2 13 -5 18 -6 12z"/>
<path d="M556 1342 c-23 -5 -86 -69 -86 -87 0 -7 -6 -16 -12 -18 -9 -4 -10 -8
-3 -14 6 -4 12 -19 12 -32 2 -26 61 -93 75 -85 4 3 8 1 8 -3 0 -5 11 -10 24
-11 17 -1 25 5 30 21 5 21 6 21 19 3 12 -16 17 -17 38 -6 31 17 58 48 65 76
14 56 -17 134 -53 134 -8 0 -11 5 -8 10 4 6 -8 10 -27 11 -18 0 -40 2 -48 3
-8 1 -23 1 -34 -2z m84 -67 c7 -8 16 -12 21 -9 9 5 13 -23 9 -61 -2 -17 -46
-65 -60 -65 -10 0 -85 29 -76 30 5 0 4 6 -2 13 -17 20 -7 69 18 89 27 22 73
23 90 3z"/>
<path d="M794 1325 c-34 -29 -33 -78 4 -103 15 -10 32 -17 39 -15 6 2 14 -1
18 -6 3 -6 14 -11 25 -11 25 0 33 -28 11 -39 -12 -7 -22 -6 -31 2 -9 8 -11 8
-6 0 4 -8 0 -8 -18 0 -13 7 -22 15 -20 19 3 4 -9 2 -26 -3 -16 -6 -33 -16 -37
-22 -3 -6 -1 -7 5 -3 7 4 12 1 12 -7 0 -16 27 -31 49 -28 7 1 10 -2 6 -8 -9
-15 67 -14 99 0 23 11 36 33 41 72 1 9 -2 17 -6 17 -5 0 -9 6 -9 13 0 8 -19
20 -42 27 -67 20 -87 31 -81 47 6 16 59 16 81 0 8 -7 21 -5 37 3 l24 13 -27
24 c-15 12 -34 23 -42 24 -71 5 -84 3 -106 -16z"/>
<path d="M1296 1243 c-2 -2 1 -15 8 -29 9 -19 18 -24 43 -22 27 2 32 6 31 25
-2 13 -7 23 -13 24 -51 5 -65 5 -69 2z"/>
<path d="M2849 1172 c-9 -10 -15 -26 -13 -35 3 -20 -7 -22 -25 -4 -11 10 -12
9 -5 -3 13 -23 14 -40 1 -40 -5 0 -7 -3 -4 -7 4 -3 2 -12 -4 -19 -9 -11 -6
-16 12 -23 13 -5 27 -7 32 -4 12 7 38 63 30 63 -5 0 -2 4 5 9 7 4 14 23 15 42
2 39 -19 50 -44 21z"/>
<path d="M3147 1101 c-15 -10 -24 -21 -20 -24 3 -4 -2 -17 -13 -29 -10 -12
-13 -18 -5 -13 11 6 12 5 5 -6 -5 -8 -9 -16 -9 -19 -3 -17 -35 -79 -44 -84 -6
-4 -9 -12 -6 -17 4 -5 2 -9 -3 -9 -5 0 -15 -13 -22 -30 -7 -16 -17 -30 -22
-30 -6 0 -8 -7 -4 -15 3 -8 1 -15 -4 -15 -6 0 -10 -7 -10 -15 0 -8 -4 -15 -10
-15 -5 0 -9 -11 -8 -24 2 -19 6 -23 19 -16 16 9 54 60 44 60 -3 0 4 9 15 20
28 28 62 99 54 112 -4 6 -3 8 2 5 6 -3 23 29 39 71 15 42 32 82 37 89 15 20
-7 23 -35 4z"/>
<path d="M2645 1090 c-3 -6 1 -7 9 -4 18 7 21 14 7 14 -6 0 -13 -4 -16 -10z"/>
<path d="M2998 1023 c-7 -18 -15 -33 -19 -33 -6 0 -20 -38 -18 -49 0 -2 -3 -7
-8 -10 -13 -10 -36 -54 -24 -46 6 3 11 -2 11 -13 0 -10 7 -19 15 -19 8 0 15 7
15 16 0 11 3 12 8 4 5 -7 17 9 32 43 14 29 29 54 33 54 5 0 5 5 2 11 -4 6 1
17 11 24 11 8 14 15 7 15 -6 0 -10 9 -8 20 3 16 -1 19 -21 18 -18 -2 -28 -11
-36 -35z"/>
<path d="M2726 981 c-17 -6 -17 -8 -4 -14 10 -3 19 0 22 9 3 8 4 14 3 13 -1 0
-11 -4 -21 -8z"/>
<path d="M2690 945 c0 -8 -4 -15 -10 -15 -5 0 -10 -6 -10 -14 0 -8 -9 -21 -20
-29 -11 -8 -17 -17 -12 -21 4 -4 3 -6 -3 -5 -13 4 -95 -51 -95 -64 0 -5 -8 -3
-17 4 -11 10 -14 10 -9 2 4 -8 1 -13 -8 -13 -9 0 -16 -5 -16 -11 0 -6 -7 -8
-16 -5 -8 3 -13 2 -10 -3 3 -5 -13 -12 -37 -16 -23 -4 -49 -9 -57 -11 -37 -9
-107 -17 -128 -16 -13 1 -21 -2 -17 -7 3 -5 1 -12 -5 -16 -16 -10 -12 -21 15
-33 14 -6 25 -8 25 -4 0 9 82 9 97 -1 6 -4 15 -2 19 4 5 8 3 9 -6 4 -8 -5 -11
-4 -6 3 4 6 13 9 21 6 8 -4 12 -11 8 -17 -3 -6 -1 -7 6 -3 6 4 9 11 6 16 -3 5
-1 11 3 14 13 8 49 -21 38 -31 -5 -4 -11 -2 -13 4 -4 10 -8 10 -19 -1 -7 -8
-27 -13 -43 -12 -21 1 -27 -1 -21 -9 6 -7 -1 -17 -21 -29 -16 -9 -27 -21 -24
-25 6 -11 53 -20 60 -13 6 6 21 10 65 17 41 6 70 17 66 24 -4 6 13 10 57 12 9
0 17 4 17 9 0 5 18 14 41 20 23 6 38 14 35 17 -3 3 2 12 12 20 12 10 14 16 4
19 -6 3 -10 9 -7 13 3 7 -16 7 -58 2 -5 -1 -6 -4 -4 -8 2 -5 -15 -17 -39 -29
-24 -11 -41 -17 -38 -13 2 4 0 10 -6 14 -5 3 -10 2 -10 -2 0 -5 -10 -14 -22
-22 -13 -7 -20 -10 -16 -6 4 4 -3 16 -15 26 -21 18 -21 19 -2 16 11 -1 26 -6
33 -11 10 -6 12 -3 10 10 -2 11 2 18 10 17 6 -2 12 2 12 7 0 6 7 10 15 10 23
0 85 32 79 42 -3 4 3 8 13 8 10 0 27 11 37 25 10 13 22 22 27 19 5 -3 9 1 9 9
0 8 9 17 20 20 26 7 38 56 16 69 -9 5 -14 13 -11 19 4 5 -1 9 -9 9 -9 0 -16
-7 -16 -15z m-50 -221 c0 -8 -19 -13 -24 -6 -3 5 1 9 9 9 8 0 15 -2 15 -3z
m-303 -130 c-3 -3 -12 -4 -19 -1 -8 3 -5 6 6 6 11 1 17 -2 13 -5z"/>
<path d="M5 942 c-3 -3 -5 -60 -5 -127 0 -119 1 -122 22 -121 20 1 21 6 22 98
1 63 5 101 14 110 7 7 12 8 12 2 0 -6 7 -11 15 -11 8 0 15 4 15 9 0 15 59 -21
75 -46 34 -51 -10 -120 -72 -113 -17 1 -29 -1 -27 -5 3 -4 -1 -8 -8 -8 -7 0
-4 -9 9 -22 20 -20 25 -20 68 -8 59 17 91 55 94 116 1 30 -2 44 -8 39 -6 -3
-9 0 -6 7 3 7 -6 26 -20 42 -14 16 -25 25 -25 20 0 -5 -4 -3 -9 5 -6 9 -33 14
-85 16 -42 1 -78 -1 -81 -3z"/>
<path d="M263 937 c-4 -7 -8 -64 -8 -128 l-1 -116 26 2 c14 1 28 3 31 3 9 3 5
229 -4 238 -12 13 -36 13 -44 1z"/>
<path d="M443 929 c-3 -10 -9 -19 -14 -19 -5 0 -9 -11 -9 -25 0 -14 -4 -25 -9
-25 -5 0 -12 -16 -15 -35 -4 -19 -11 -35 -17 -35 -6 0 -8 -4 -4 -9 3 -5 -2
-17 -11 -25 -8 -9 -12 -16 -8 -16 5 0 3 -5 -4 -12 -21 -21 -13 -37 18 -36 17
1 30 7 30 13 0 18 28 28 83 30 39 1 50 -3 62 -22 11 -17 24 -23 45 -21 27 2
45 28 20 28 -5 0 -10 5 -10 11 0 6 -14 41 -32 77 -17 37 -31 72 -31 79 0 8 -9
7 -30 -3 -16 -9 -31 -13 -35 -10 -3 3 -1 6 5 6 6 0 14 12 18 28 4 15 7 29 8
31 1 2 -11 5 -27 7 -21 2 -29 -2 -33 -17z m60 -100 c18 -32 24 -66 7 -39 -6 9
-10 10 -10 3 0 -6 -13 -11 -30 -11 -18 1 -30 6 -30 15 0 7 5 13 10 13 6 0 9 3
8 8 -2 10 13 42 21 42 3 0 14 -14 24 -31z"/>
<path d="M650 940 c-8 -5 -12 -39 -11 -111 1 -140 1 -139 26 -139 24 0 49 22
38 33 -3 4 -2 7 3 7 5 0 15 -9 22 -20 9 -15 23 -20 52 -20 22 0 40 3 41 8 0 4
2 15 4 24 4 21 -8 25 -72 23 l-51 -2 0 94 c0 52 -3 97 -6 101 -10 9 -32 11
-46 2z"/>
<path d="M930 938 c0 -4 -9 -8 -21 -8 -11 0 -17 -4 -14 -10 3 -5 0 -10 -7 -10
-8 0 -22 -15 -33 -32 -20 -35 -28 -98 -12 -98 6 0 8 -3 4 -6 -9 -9 42 -57 76
-72 44 -19 56 -16 51 15 -3 15 -6 28 -7 28 -1 0 -15 7 -32 15 -24 12 -31 23
-33 52 -2 29 2 40 24 57 15 11 38 21 51 21 30 0 73 -42 73 -72 0 -28 -28 -71
-40 -63 -5 3 -14 -3 -19 -14 -8 -15 -7 -20 5 -25 32 -12 53 -5 84 30 24 28 31
44 28 65 -3 15 -1 26 3 23 4 -2 1 9 -7 26 -9 16 -20 30 -25 30 -6 0 -7 5 -4
10 3 6 1 10 -6 10 -6 0 -19 8 -28 18 -17 18 -111 27 -111 10z"/>
<path d="M1235 942 c-29 -6 -85 -50 -85 -68 0 -7 -4 -14 -8 -14 -5 0 -9 -20
-9 -45 0 -25 3 -42 8 -39 5 3 9 -2 9 -12 0 -44 143 -100 165 -64 3 6 16 10 27
10 12 0 19 3 15 6 -3 3 5 16 17 28 13 11 26 38 30 59 7 37 0 44 -36 38 -5 0
-8 3 -8 9 0 6 5 10 10 10 28 0 -24 79 -53 81 -7 1 -23 2 -37 3 -14 1 -34 0
-45 -2z m83 -72 c2 -6 11 -10 20 -10 14 0 14 -2 3 -9 -7 -5 -31 -8 -52 -6 -31
2 -38 -1 -36 -14 5 -30 18 -41 53 -41 34 0 47 -17 19 -25 -8 -3 -23 -8 -32
-12 -31 -11 -43 -12 -43 -2 0 5 -9 9 -20 9 -24 0 -44 43 -36 75 8 30 55 56 91
50 17 -3 32 -10 33 -15z"/>
<path d="M1429 922 c-3 -116 0 -147 17 -178 13 -24 26 -34 42 -34 13 0 20 -4
17 -10 -4 -6 5 -10 19 -10 14 0 26 5 26 10 0 6 5 10 11 10 5 0 8 -4 5 -8 -3
-5 1 -9 9 -9 8 0 15 3 15 6 0 3 14 12 30 19 18 8 30 21 30 32 0 10 4 21 8 24
9 5 8 78 -1 94 -7 10 1 22 14 22 4 0 8 -40 7 -89 0 -49 3 -94 7 -101 8 -14
167 -12 177 3 15 25 -5 37 -62 37 -42 0 -59 4 -64 15 -3 8 0 15 7 15 8 0 8 3
2 8 -14 10 -14 93 0 84 5 -3 4 2 -4 11 -12 15 -11 17 3 17 10 0 14 4 11 10 -3
5 0 8 7 6 47 -15 69 -16 62 -4 -6 10 -5 11 7 1 12 -10 17 -8 27 7 17 28 0 35
-95 35 -80 0 -88 -3 -84 -32 3 -23 -17 -14 -21 9 -2 11 -11 22 -20 24 -22 3
-42 -21 -35 -41 4 -8 2 -17 -4 -20 -5 -4 -7 -11 -3 -16 10 -17 12 -59 2 -65
-4 -3 -6 -10 -2 -15 9 -15 -26 -49 -50 -49 -12 0 -32 7 -44 16 -20 14 -22 23
-21 95 1 44 -1 82 -4 85 -2 2 -14 6 -26 9 -17 3 -21 -1 -22 -23z"/>
<path d="M1944 939 c-49 -14 -74 -91 -34 -104 11 -3 20 -10 20 -13 0 -4 20
-14 45 -21 48 -14 73 -35 55 -46 -5 -3 -15 -3 -22 1 -7 4 -8 3 -4 -4 4 -7 3
-12 -3 -12 -5 0 -13 5 -16 10 -4 6 -10 8 -14 5 -5 -2 -16 2 -27 9 -14 10 -22
11 -36 2 -10 -6 -18 -15 -18 -19 0 -14 28 -37 45 -37 9 0 14 -4 11 -8 -3 -4
20 -8 49 -9 30 0 52 3 49 8 -3 5 1 9 9 9 19 0 45 40 41 63 -3 23 -34 58 -45
52 -4 -3 -10 -1 -13 4 -3 5 -22 12 -41 15 -21 4 -35 13 -35 22 0 23 31 29 61
12 15 -9 30 -13 34 -10 4 4 12 7 18 7 7 0 12 12 13 27 1 15 -3 25 -8 22 -5 -3
-15 -1 -22 6 -18 14 -73 19 -112 9z"/>
<path d="M2631 899 c-13 -10 -19 -19 -14 -19 13 0 49 27 43 33 -3 3 -16 -3
-29 -14z"/>
<path d="M1758 839 c-16 -9 -16 -11 0 -29 9 -11 29 -20 44 -20 23 0 28 4 28
25 0 14 -3 25 -7 26 -5 0 -17 2 -28 4 -11 2 -28 0 -37 -6z"/>
<path d="M2523 705 c0 -8 4 -12 9 -9 5 3 6 10 3 15 -9 13 -12 11 -12 -6z"/>
</g>
</svg>
