<svg width="269" height="152" viewBox="0 0 269 152" fill="none" xmlns="http://www.w3.org/2000/svg">
<path d="M268.394 60.9075L262.819 60.819L262.873 50.0684H258.124L258.195 60.7483L255.163 60.6952V65.012L258.224 64.9412L258.419 94.9346H262.637L262.796 64.8586L268.394 64.7525V60.9075ZM253.317 60.1291C252.004 60.1303 250.706 60.4023 249.503 60.9279C248.3 61.4535 247.219 62.2215 246.327 63.1838V60.7306H242.085L241.79 94.9936H246.562L246.38 67.9842C247.524 65.4366 250.916 64.3633 253.263 64.4458L253.328 64.3869L253.393 60.1939L253.317 60.1291ZM226.182 65.4366C226.696 64.9884 227.852 64.8174 230.441 64.7997C231.839 64.7997 233.332 64.9353 233.892 65.4543C234.346 65.873 234.399 66.8519 234.393 67.8898L234.57 88.1292C234.57 89.114 234.405 89.8983 233.863 90.3111C233.166 90.8419 231.668 91.0306 230.164 91.0306C229.574 91.0306 227.256 91.0837 226.271 90.4999C225.805 90.2227 225.681 89.4737 225.681 88.8191L225.752 67.0583C225.752 66.3153 225.799 65.7668 226.171 65.4366H226.182ZM239.065 67.878C239.065 64.611 238.098 62.4467 236.021 61.279C234.606 60.477 232.724 60.1821 230.494 60.1821C226.825 60.1821 224.955 60.6244 223.546 61.6682C221.965 62.8477 221.239 64.5697 221.239 66.8696L221.292 88.8132C221.292 90.8301 221.882 92.4695 223.139 93.59C224.531 94.8461 226.412 95.3592 230.129 95.3592C233.172 95.3592 235.473 94.7046 236.936 93.3364C238.564 91.8149 238.865 89.6801 238.853 87.8992L239.065 67.878ZM205.283 66.0086C207.879 65.0238 210.798 64.1687 211.937 64.1687C213.075 64.1687 213.707 65.1594 213.707 67.1881L213.825 88.884C213.825 90.5647 213.317 91.5201 211.034 91.5201C209.613 91.5201 206.563 90.0929 205.448 89.3263L205.13 89.1022L205.283 66.0086ZM211.984 59.9403C209.695 60.063 207.443 60.5735 205.324 61.45V60.6421H200.552L200.847 103.043H205.088L205.142 93.7787C206.97 94.7411 208.979 95.3115 211.04 95.4535C215.376 95.4535 218.178 92.9708 218.195 88.9135L218.29 67.4003C218.29 62.9361 216.16 59.9521 211.955 59.9521L211.984 59.9403ZM183.989 67.017C183.989 66.2681 184.036 65.7255 184.413 65.3953C184.927 64.9412 186.077 64.8056 188.666 64.7584C190.064 64.7584 191.557 64.8881 192.117 65.4071C192.571 65.8317 192.624 66.8047 192.624 67.8426L192.565 74.7365L183.942 74.8722L183.989 67.017ZM197.326 79.0061V74.878H197.267V67.8485C197.267 64.5756 196.293 62.4113 194.223 61.2436C192.807 60.4475 190.926 60.1526 188.696 60.1526C185.027 60.1526 183.157 60.5949 181.747 61.6387C180.166 62.8182 179.441 64.5402 179.441 66.8401L179.494 88.8427C179.494 90.8596 180.084 92.499 181.34 93.6195C182.732 94.8756 184.614 95.3887 188.33 95.3887C191.374 95.3887 193.674 94.7341 195.131 93.3659C196.765 91.8444 197.054 89.7096 197.054 87.9227V85.269L192.784 85.7703V88.1292C192.784 89.114 192.619 89.8983 192.076 90.3111C191.38 90.8419 189.882 91.0306 188.377 91.0306C187.788 91.0306 185.469 91.0837 184.484 90.5057C184.018 90.2286 183.894 89.4737 183.894 88.8191L183.93 78.7349L197.326 79.0061ZM177.63 60.1349C176.318 60.1363 175.021 60.4083 173.819 60.934C172.617 61.4596 171.537 62.2275 170.646 63.1897V60.7365H166.363L166.068 94.9994H170.84L170.652 67.9901C171.796 65.4425 175.194 64.3692 177.541 64.4517L177.6 64.3928L177.665 60.1998L177.63 60.1349Z" fill="black"/>
<path d="M152.525 88.2979L152.153 88.6223C151.64 89.0764 151.322 89.3653 150.879 89.7192C150.368 90.1379 149.819 90.509 149.239 90.8279C148.42 91.2663 147.503 91.4914 146.573 91.4824C146.123 91.4829 145.676 91.4071 145.252 91.2583C144.994 91.1687 144.765 91.0122 144.588 90.805C144.411 90.5978 144.292 90.3472 144.243 90.0789C144.208 89.9648 144.181 89.8486 144.161 89.731C144.161 89.6071 144.125 89.4774 144.113 89.3417C144.102 89.2061 144.113 89.0587 144.113 88.9053L144.161 84.1522C144.163 83.5861 144.32 83.0316 144.615 82.5481C144.905 82.0855 145.351 81.7408 145.871 81.5751L152.584 79.3164L152.525 88.2979ZM157.244 95.0031L157.061 66.4781V66.2776C157.061 63.4882 155.769 61.6365 153.091 60.7578C151.717 60.4096 150.303 60.2412 148.885 60.2565H148.414C146.849 60.215 145.287 60.4139 143.783 60.8463C143.387 60.959 143.004 61.1111 142.639 61.3003C142.237 61.4959 141.859 61.7373 141.512 62.0198C141.16 62.3076 140.844 62.6385 140.574 63.0046C139.77 64.2404 139.387 65.7029 139.483 67.174L139.512 71.4377H143.748V67.174C143.698 66.4792 143.839 65.7839 144.155 65.163C144.792 64.2961 146.231 64.2372 148.832 64.2372C149.582 64.2585 150.33 64.3176 151.074 64.4141C152.189 64.6146 152.613 65.0038 152.608 66.1833L152.59 74.7343L143.848 77.7537C142.427 78.3222 141.245 79.3637 140.503 80.7023C139.954 81.6939 139.647 82.8012 139.607 83.934V84.3468L139.66 89.0233V89.1058C139.66 89.324 139.66 89.554 139.695 89.7899C139.731 90.0258 139.754 90.2676 139.801 90.5094C139.846 90.7627 139.907 91.0129 139.984 91.2583C140.146 91.7931 140.38 92.3031 140.68 92.7739C141.312 93.7189 142.206 94.4589 143.252 94.9029C144.273 95.3107 145.362 95.5247 146.461 95.5338H146.856C147.407 95.5265 147.956 95.4692 148.496 95.3628C149.527 95.1498 150.521 94.7861 151.446 94.2836C151.829 94.0772 152.189 93.8531 152.531 93.6231V95.0267L157.244 95.0031ZM132.328 85.768V88.1269C132.328 89.1117 132.163 89.8961 131.62 90.3089C130.924 90.8396 129.426 91.0284 127.921 91.0284C127.332 91.0284 125.013 91.0814 124.028 90.5035C123.562 90.2263 123.438 89.4715 123.438 88.8169L123.509 67.0619C123.509 66.313 123.556 65.7704 123.928 65.4402C124.441 64.9861 125.597 64.821 128.187 64.8033C129.585 64.8033 131.077 64.9331 131.638 65.452C132.092 65.8707 132.151 66.8497 132.139 67.8876L132.109 73.0535L136.858 72.8707L136.817 67.8876C136.787 64.6028 135.838 62.4444 133.767 61.2827C132.351 60.4865 130.476 60.1858 128.246 60.1858C124.571 60.1858 122.701 60.6339 121.291 61.6778C119.71 62.8572 118.985 64.5733 118.991 66.8791L119.038 88.8228C119.038 90.8396 119.628 92.4732 120.884 93.5937C122.276 94.8498 124.158 95.3628 127.874 95.3628C130.918 95.3628 133.218 94.7141 134.681 93.346C136.309 91.8186 136.604 89.6897 136.604 87.9028V85.249L132.328 85.768ZM111.564 60.6693L111.853 94.9323H116.1L116.33 60.6693H111.564ZM112.119 56.6179H115.782L116.301 50.0484H111.564L112.119 56.6179ZM109.169 60.1563C107.857 60.1575 106.558 60.4295 105.356 60.9551C104.153 61.4807 103.072 62.2487 102.179 63.211V60.7578H97.9381L97.6432 95.0208H102.415L102.227 68.0114C103.371 65.4638 106.769 64.3905 109.116 64.4731L109.181 64.4141L109.246 60.2212L109.169 60.1563ZM92.7885 48.8984C89.2965 48.8984 87.6389 49.4233 86.2999 50.6676C85.6792 51.3175 85.1962 52.086 84.8799 52.9271C84.5637 53.7682 84.4207 54.6646 84.4595 55.5623L84.4182 60.6752H82.684V64.992L84.3887 64.9625L84.1764 93.0983V95.0326H88.9249L88.8777 64.8682L95.7556 64.7089V60.8698L88.8836 60.7578V55.5682C88.8836 54.9136 88.9897 54.0467 89.4734 53.799C90.3759 53.2624 92.2517 53.2093 92.8298 53.2093C93.9983 53.2026 95.1631 53.3392 96.2983 53.6162L96.7525 49.3761C95.4399 49.079 94.0989 48.9248 92.7531 48.9161L92.7885 48.8984ZM75.9476 88.2979L75.5701 88.6223C75.0628 89.0764 74.7443 89.3653 74.3019 89.7192C73.7872 90.1367 73.2364 90.5077 72.6561 90.8279C71.8385 91.266 70.9235 91.4912 69.9958 91.4824C69.544 91.4827 69.0953 91.4069 68.6686 91.2583C68.4117 91.1676 68.1832 91.0109 68.0061 90.8038C67.829 90.5968 67.7096 90.3467 67.6599 90.0789C67.6599 89.9727 67.6009 89.8548 67.5773 89.731C67.5537 89.6071 67.5419 89.4774 67.5301 89.3417C67.5183 89.2061 67.5301 89.0587 67.5301 88.9053L67.5773 84.1522C67.583 83.5866 67.7398 83.0328 68.0315 82.5481C68.3222 82.0855 68.7673 81.7408 69.288 81.5751L76.0066 79.3164L75.9476 88.2979ZM80.6666 95.0031L80.4779 66.4781V66.2776C80.4779 63.4882 79.186 61.6365 76.508 60.7578C75.1356 60.41 73.7239 60.2415 72.3081 60.2565H71.8362C70.2697 60.2151 68.7061 60.414 67.1998 60.8463C66.8041 60.959 66.4208 61.1111 66.0555 61.3003C65.6545 61.4946 65.2782 61.7362 64.9347 62.0198C64.5804 62.3076 64.2633 62.6384 63.9909 63.0046C63.189 64.2411 62.8083 65.7036 62.9055 67.174V71.4377H63.0589H67.1467V67.174C67.1032 66.4796 67.2436 65.7859 67.5537 65.163C68.1908 64.2961 69.6301 64.2372 72.2314 64.2372C72.5264 64.2372 74.0011 64.3256 74.4789 64.4141C75.5878 64.6146 76.0125 65.0038 76.0066 66.1833V74.7343L67.2706 77.7537C65.8475 78.3215 64.664 79.363 63.9201 80.7023C63.3734 81.6949 63.0664 82.8016 63.0235 83.934V84.3468L63.0766 89.0233V89.1058C63.0766 89.324 63.0766 89.554 63.1179 89.7899C63.1592 90.0258 63.171 90.2676 63.2182 90.5094C63.2658 90.7621 63.3269 91.0121 63.401 91.2583C63.5619 91.7943 63.7982 92.3046 64.103 92.7739C64.7332 93.7201 65.6275 94.4604 66.6748 94.9029C67.6941 95.31 68.7803 95.5239 69.8778 95.5338H70.273C70.8257 95.5265 71.3765 95.4693 71.9188 95.3628C72.9493 95.1488 73.9429 94.7852 74.8682 94.2836C75.2457 94.0772 75.6114 93.8531 75.9535 93.6231V95.0267L80.6666 95.0031Z" fill="#CC1719"/>
<path d="M40.5724 67.0085C40.5724 66.2595 40.6137 65.717 40.9913 65.3867C41.5044 64.9327 42.6547 64.797 45.2442 64.7498C46.6422 64.7498 48.1405 64.8796 48.7009 65.3986C49.1551 65.8232 49.2082 66.7962 49.2023 67.8341L49.1728 74.7339L40.5429 74.8695L40.5724 67.0085ZM53.9036 78.9976V74.8695H53.8446V67.84C53.8446 64.567 52.8713 62.4027 50.7949 61.2351C49.3793 60.439 47.5035 60.1441 45.2737 60.1441C41.5988 60.1441 39.7289 60.5864 38.3191 61.6302C36.7383 62.8097 36.0127 64.5317 36.0186 66.8316L36.0658 88.8342C36.0658 90.851 36.6557 92.4905 37.9121 93.611C39.3042 94.8671 41.1859 95.3801 44.9021 95.3801C47.9459 95.3801 50.2464 94.7255 51.7093 93.3574C53.3373 91.8359 53.6322 89.7011 53.6322 87.9142V85.2605L49.3616 85.7617V88.1206C49.3616 89.1055 49.2023 89.8898 48.6537 90.3026C47.9636 90.8334 46.4594 91.0221 44.9552 91.0221C44.3653 91.0221 42.0471 91.0751 41.0679 90.4972C40.596 90.22 40.4781 89.4652 40.4781 88.8106V78.7263L53.9036 78.9976ZM29.0404 74.2444L28.9224 94.9909H33.6414L33.4527 67.3682C33.4527 63.022 31.0106 60.2915 27.0466 60.2915C25.7016 60.3264 24.3718 60.5855 23.1122 61.0582L20.4578 62.0548L20.5226 48.957H15.7801L16.075 94.9555H16.2519L16.6531 95.0145H16.83L17.237 94.9555H17.414L17.8151 95.0145H17.9921L18.3991 94.9555H18.5761L18.9772 95.0145H19.1541L19.5611 94.9555H20.3162L20.4636 66.2359C24.8523 64.5847 25.8138 64.225 27.0171 64.225C29.2528 64.225 29.0522 66.637 29.0522 69.3615C29.0522 70.5409 29.0522 72.1037 29.0522 74.268L29.0404 74.2444ZM14.0871 60.9048L8.50691 60.8164L8.5659 50.0657H3.84691L3.91769 60.7456L0.885742 60.6925V65.0093L3.94129 64.9386L4.14184 94.9319H8.33585L8.49511 64.856L14.093 64.7498L14.0871 60.9048Z" fill="black"/>
</svg>
