<svg width="23" height="29" viewBox="0 0 23 29" fill="none" xmlns="http://www.w3.org/2000/svg">
<path d="M11.4609 14.4238C12.2489 14.4238 12.9236 14.143 13.4852 13.5814C14.0459 13.0208 14.3262 12.3465 14.3262 11.5586C14.3262 10.7707 14.0459 10.0959 13.4852 9.53431C12.9236 8.97367 12.2489 8.69336 11.4609 8.69336C10.673 8.69336 9.99871 8.97367 9.43808 9.53431C8.8765 10.0959 8.5957 10.7707 8.5957 11.5586C8.5957 12.3465 8.8765 13.0208 9.43808 13.5814C9.99871 14.143 10.673 14.4238 11.4609 14.4238ZM11.4609 28.2128C11.2699 28.2128 11.0789 28.177 10.8879 28.1053C10.6969 28.0337 10.5297 27.9382 10.3865 27.8188C6.90044 24.7387 4.29785 21.8796 2.57871 19.2417C0.859571 16.6028 0 14.1373 0 11.8451C0 8.26357 1.1523 5.41028 3.45691 3.28523C5.76055 1.16018 8.42857 0.0976562 11.4609 0.0976562C14.4933 0.0976562 17.1613 1.16018 19.465 3.28523C21.7696 5.41028 22.9219 8.26357 22.9219 11.8451C22.9219 14.1373 22.0623 16.6028 20.3432 19.2417C18.624 21.8796 16.0214 24.7387 12.5354 27.8188C12.3921 27.9382 12.225 28.0337 12.034 28.1053C11.843 28.177 11.652 28.2128 11.4609 28.2128Z" fill="#00A139"/>
</svg>
