<svg width="15" height="15" viewBox="0 0 15 15" fill="none" xmlns="http://www.w3.org/2000/svg">
<g clip-path="url(#clip0_1861_2710)">
<path d="M5.60625 13.367V10.3228L3.33411 11.9993C3.97384 12.5949 4.74592 13.0582 5.60625 13.367ZM10.0182 13.367C10.8785 13.0582 11.6506 12.5949 12.2903 11.9993L10.0182 10.3007V13.367ZM1.56934 9.33008C1.63551 9.55067 1.72375 9.74921 1.83405 9.96981L2.69438 9.33008H1.56934ZM12.93 9.33008L13.7904 9.96981C13.8786 9.77127 13.9668 9.55067 14.0551 9.33008H12.93Z" fill="#2A5F9E"/>
<path d="M5.93724 8.44727H1.32678C1.39296 8.7561 1.4812 9.04288 1.56944 9.32965H2.69448L1.83415 9.96938C2.01063 10.3444 2.20917 10.6753 2.45182 11.0062L4.72397 9.32965H5.60635V9.77084L3.02537 11.668L3.33421 11.9768L5.60635 10.3223V13.3666C5.89313 13.4769 6.1799 13.543 6.48874 13.6092V8.44727H5.93724ZM14.2978 8.44727H9.13589V13.6092C9.44473 13.543 9.7315 13.4548 10.0183 13.3666V10.3223L12.2904 11.9768C12.5993 11.69 12.864 11.3812 13.1287 11.0503L10.7683 9.32965H12.2684L13.614 10.3223C13.6802 10.212 13.7464 10.0797 13.7905 9.96938L12.9301 9.32965H14.0552C14.1434 9.04288 14.2317 8.7561 14.2978 8.44727Z" fill="white"/>
<path d="M2.45178 11.0066C2.62826 11.2493 2.80474 11.4699 3.00327 11.6905L5.60631 9.79333V9.35214H4.72392L2.45178 11.0066ZM10.7903 9.33008L13.1507 11.0507C13.2389 10.9404 13.3051 10.8301 13.3934 10.7198C13.4154 10.6978 13.4154 10.6757 13.4375 10.6757C13.5037 10.5654 13.5919 10.4331 13.6581 10.3228L12.2683 9.33008H10.7903Z" fill="#ED4C5C"/>
<path d="M10.0182 0.880859V3.92509L12.2903 2.24856C11.6506 1.65295 10.8785 1.18969 10.0182 0.880859ZM5.60625 0.880859C4.74592 1.18969 3.97384 1.65295 3.33411 2.24856L5.60625 3.94715V0.880859ZM14.0551 4.91777C13.9889 4.69718 13.9007 4.49864 13.7904 4.27804L12.93 4.91777H14.0551ZM2.69438 4.91777L1.83405 4.27804C1.74581 4.49864 1.65757 4.69718 1.56934 4.91777H2.69438Z" fill="#2A5F9E"/>
<path d="M9.68738 5.80063H14.2758C14.2096 5.49179 14.1214 5.20502 14.0331 4.91824H12.9081L13.7684 4.27851C13.5919 3.9035 13.3934 3.5726 13.1507 3.24171L10.9007 4.91824H10.0183V4.47705L12.5993 2.57992L12.2904 2.27108L10.0183 3.92556V0.881328C9.7315 0.77103 9.44473 0.704851 9.13589 0.638672V5.80063H9.68738ZM1.32678 5.80063H6.48874V0.638672C6.1799 0.704851 5.89313 0.793089 5.60635 0.881328V3.92556L3.33421 2.27108C3.02537 2.55786 2.76066 2.86669 2.49594 3.19759L4.85632 4.91824H3.35627L2.01063 3.92556C1.94445 4.03585 1.87827 4.16821 1.83415 4.27851L2.69448 4.91824H1.56944C1.4812 5.20502 1.39296 5.49179 1.32678 5.80063Z" fill="white"/>
<path d="M13.1728 3.24049C12.9963 2.99783 12.8198 2.77724 12.6213 2.55664L10.0182 4.45377V4.89496H10.9006L13.1728 3.24049ZM4.83422 4.91702L2.4959 3.19637C2.40766 3.30667 2.34148 3.41697 2.25324 3.52726C2.23118 3.54932 2.23118 3.57138 2.20912 3.57138C2.14294 3.68168 2.0547 3.81404 1.98853 3.92434L3.33416 4.91702H4.83422Z" fill="#ED4C5C"/>
<path d="M14.2978 5.80017H9.1358V0.638217C8.71667 0.549979 8.27548 0.505859 7.81223 0.505859C7.34897 0.505859 6.90778 0.549979 6.48865 0.638217V5.80017H1.32669C1.23846 6.2193 1.19434 6.6605 1.19434 7.12375C1.19434 7.587 1.23846 8.02819 1.32669 8.44733H6.48865V13.6093C6.90778 13.6975 7.34897 13.7416 7.81223 13.7416C8.27548 13.7416 8.71667 13.6975 9.1358 13.6093V8.44733H14.2978C14.386 8.02819 14.4301 7.587 14.4301 7.12375C14.4301 6.6605 14.386 6.2193 14.2978 5.80017Z" fill="#ED4C5C"/>
</g>
<defs>
<clipPath id="clip0_1861_2710">
<rect width="14.1182" height="14.1182" fill="white" transform="translate(0.753174 0.0644531)"/>
</clipPath>
</defs>
</svg>
