<svg width="15" height="16" viewBox="0 0 15 16" fill="none" xmlns="http://www.w3.org/2000/svg">
<path d="M0.506348 8.00931C0.506348 10.8995 2.3596 13.3484 4.91885 14.253V1.76562C2.3596 2.67019 0.506348 5.11912 0.506348 8.00931Z" fill="#428BC1"/>
<path d="M13.7438 8.00931C13.7438 5.11912 11.9126 2.67019 9.3313 1.76562V14.253C11.9126 13.3484 13.7438 10.8995 13.7438 8.00931Z" fill="#ED4C5C"/>
<path d="M4.91882 14.2531C5.60276 14.4957 6.35289 14.6281 7.12507 14.6281C7.89726 14.6281 8.64739 14.4957 9.33132 14.2531V1.76569C8.64739 1.523 7.91932 1.39062 7.12507 1.39062C6.33082 1.39062 5.60276 1.523 4.91882 1.76569V14.2531Z" fill="white"/>
</svg>
