<svg width="15" height="15" viewBox="0 0 15 15" fill="none" xmlns="http://www.w3.org/2000/svg">
<path d="M7.12503 1.19141C4.23485 1.19141 1.78591 3.04466 0.881348 5.60391H13.3687C12.4642 3.04466 10.0152 1.19141 7.12503 1.19141Z" fill="#3E4347"/>
<path d="M7.12503 14.4281C10.0152 14.4281 12.4642 12.5969 13.3687 10.0156H0.881348C1.78591 12.5969 4.23485 14.4281 7.12503 14.4281Z" fill="#FFE62E"/>
<path d="M0.88141 5.60352C0.638723 6.28745 0.506348 7.03758 0.506348 7.80977C0.506348 8.58195 0.638723 9.33208 0.88141 10.016H13.3688C13.6115 9.33208 13.7438 8.58195 13.7438 7.80977C13.7438 7.03758 13.6115 6.28745 13.3688 5.60352H0.88141Z" fill="#ED4C5C"/>
</svg>
