<svg width="15" height="15" viewBox="0 0 15 15" fill="none" xmlns="http://www.w3.org/2000/svg">
<path d="M3.83782 13.3475V1.875C1.85219 3.02225 0.528442 5.16231 0.528442 7.61125C0.528442 10.0602 1.85219 12.2002 3.83782 13.3475Z" fill="#699635"/>
<path d="M7.14714 0.992188C5.93371 0.992188 4.80852 1.32313 3.83777 1.87469V13.3472C4.80852 13.9208 5.93371 14.2297 7.14714 14.2297C10.8095 14.2297 13.7659 11.2733 13.7659 7.61094C13.7659 3.94856 10.8095 0.992188 7.14714 0.992188Z" fill="#ED4C5C"/>
<path d="M3.83781 4.96289C2.38168 4.96289 1.19031 6.15427 1.19031 7.61039C1.19031 9.06652 2.38168 10.2579 3.83781 10.2579C5.29393 10.2579 6.48531 9.06652 6.48531 7.61039C6.48531 6.15427 5.29393 4.96289 3.83781 4.96289ZM3.83781 9.92695C2.55818 9.92695 1.52125 8.89002 1.52125 7.61039C1.52125 6.33077 2.55818 5.29383 3.83781 5.29383C5.11743 5.29383 6.15437 6.33077 6.15437 7.61039C6.15437 8.89002 5.11743 9.92695 3.83781 9.92695Z" fill="#FFE62E"/>
<path d="M4.74232 10.1923C4.6982 10.2365 4.63201 10.2365 4.58788 10.1923L1.56532 6.19903C1.5212 6.15491 1.5212 6.08872 1.56532 6.04459L1.63151 5.97841C1.67563 5.93428 1.74182 5.93428 1.78595 5.97841L4.80851 9.97172C4.85263 10.0158 4.85263 10.082 4.80851 10.1262L4.74232 10.1923Z" fill="#FFE62E"/>
<path d="M3.88188 4.85352C3.94807 4.85352 3.99219 4.89764 3.99219 4.96383V10.2588C3.99219 10.325 3.94807 10.3691 3.88188 10.3691H3.77157C3.70538 10.3691 3.66125 10.325 3.66125 10.2588V4.96383C3.66125 4.89764 3.70538 4.85352 3.77157 4.85352H3.88188Z" fill="#FFE62E"/>
<path d="M6.46328 7.89719L3.83784 7.43388V7.76482L6.41915 8.22813C6.48534 8.22813 6.52946 8.20607 6.55153 8.13988L6.57359 8.02957C6.57359 7.98544 6.52946 7.91925 6.46328 7.89719ZM3.83784 7.41182L1.76396 5.95569C1.71984 5.91157 1.65365 5.93363 1.60953 5.97776L1.54334 6.066C1.49921 6.11013 1.52128 6.17632 1.5654 6.22044L3.83784 7.80894V7.41182Z" fill="#FFE62E"/>
<path d="M3.74954 7.17055L1.67567 9.24442C1.63154 9.28855 1.63154 9.35473 1.67567 9.39886L1.76392 9.48711C1.80804 9.53123 1.87423 9.53123 1.91836 9.48711L3.74954 7.65592V7.17055ZM3.83779 6.17773L1.07998 7.47942C1.03586 7.50148 0.99173 7.56767 1.03586 7.63386L1.07998 7.74417C1.10204 7.7883 1.16823 7.83242 1.23442 7.7883L3.83779 6.5528V6.17773Z" fill="#FFE62E"/>
<path d="M6.28673 6.55316L3.66129 6.08984V6.42078L6.2426 6.88409C6.30879 6.88409 6.35291 6.86203 6.37498 6.79584L6.39704 6.68553C6.37498 6.61934 6.33085 6.55316 6.28673 6.55316ZM3.81573 9.13447C3.7716 9.15653 3.72748 9.22272 3.7716 9.28891L3.81573 9.39922C3.83779 9.44334 3.90398 9.48747 3.97016 9.44334L6.17641 8.42847L6.28673 8.00928L3.81573 9.13447ZM3.81573 8.38434L1.34473 7.47978V7.83278L3.81573 8.73734V8.38434Z" fill="#FFE62E"/>
<path d="M2.09485 9.11133V9.44227L5.3601 9.66289C5.49247 9.57464 5.60279 9.46433 5.7131 9.35402L2.09485 9.11133Z" fill="#FFE62E"/>
<path d="M2.73462 6.50781V8.05219C2.73462 8.66994 3.21999 9.15531 3.83774 9.15531C4.45549 9.15531 4.94087 8.66994 4.94087 8.05219V6.50781H2.73462Z" fill="white"/>
<path d="M3.83783 9.59641C2.97739 9.59641 2.29346 8.91247 2.29346 8.05203V6.06641H5.38221V8.05203C5.38221 8.91247 4.69827 9.59641 3.83783 9.59641ZM3.17596 6.94891V8.05203C3.17596 8.42709 3.46277 8.71391 3.83783 8.71391C4.21289 8.71391 4.49971 8.42709 4.49971 8.05203V6.94891H3.17596Z" fill="#ED4C5C"/>
<path d="M3.63925 7.03769V7.39069C3.63925 7.45688 3.68337 7.501 3.74956 7.501H3.92606C3.99225 7.501 4.03637 7.45688 4.03637 7.39069V7.01562H3.63925V7.03769ZM3.63925 7.58925V7.96431C3.63925 8.0305 3.68337 8.07462 3.74956 8.07462H3.92606C3.99225 8.07462 4.03637 8.0305 4.03637 7.96431V7.58925H3.63925ZM3.198 7.58925V7.96431C3.198 8.0305 3.24212 8.07462 3.30831 8.07462H3.48481C3.551 8.07462 3.59512 8.0305 3.59512 7.96431V7.58925H3.198ZM4.0805 7.58925V7.96431C4.0805 8.0305 4.12462 8.07462 4.19081 8.07462H4.36731C4.4335 8.07462 4.47762 8.0305 4.47762 7.96431V7.58925H4.0805ZM3.63925 8.11875V8.49381C3.63925 8.56 3.68337 8.60413 3.74956 8.60413H3.92606C3.99225 8.60413 4.03637 8.56 4.03637 8.49381V8.11875H3.63925Z" fill="#0071BC"/>
<path d="M3.83783 7.85387C3.8622 7.85387 3.88195 7.83412 3.88195 7.80975C3.88195 7.78538 3.8622 7.76562 3.83783 7.76562C3.81346 7.76562 3.7937 7.78538 3.7937 7.80975C3.7937 7.83412 3.81346 7.85387 3.83783 7.85387Z" fill="white"/>
<path d="M3.74957 7.96325C3.77394 7.96325 3.79369 7.94349 3.79369 7.91913C3.79369 7.89476 3.77394 7.875 3.74957 7.875C3.7252 7.875 3.70544 7.89476 3.70544 7.91913C3.70544 7.94349 3.7252 7.96325 3.74957 7.96325Z" fill="white"/>
<path d="M3.92608 7.96325C3.95045 7.96325 3.97021 7.94349 3.97021 7.91913C3.97021 7.89476 3.95045 7.875 3.92608 7.875C3.90171 7.875 3.88196 7.89476 3.88196 7.91913C3.88196 7.94349 3.90171 7.96325 3.92608 7.96325Z" fill="white"/>
<path d="M3.74957 7.74255C3.77394 7.74255 3.79369 7.72279 3.79369 7.69842C3.79369 7.67405 3.77394 7.6543 3.74957 7.6543C3.7252 7.6543 3.70544 7.67405 3.70544 7.69842C3.70544 7.72279 3.7252 7.74255 3.74957 7.74255Z" fill="white"/>
<path d="M3.92608 7.74255C3.95045 7.74255 3.97021 7.72279 3.97021 7.69842C3.97021 7.67405 3.95045 7.6543 3.92608 7.6543C3.90171 7.6543 3.88196 7.67405 3.88196 7.69842C3.88196 7.72279 3.90171 7.74255 3.92608 7.74255Z" fill="white"/>
<path d="M3.83783 7.30114C3.8622 7.30114 3.88195 7.28138 3.88195 7.25702C3.88195 7.23265 3.8622 7.21289 3.83783 7.21289C3.81346 7.21289 3.7937 7.23265 3.7937 7.25702C3.7937 7.28138 3.81346 7.30114 3.83783 7.30114Z" fill="white"/>
<path d="M3.74957 7.41247C3.77394 7.41247 3.79369 7.39271 3.79369 7.36834C3.79369 7.34397 3.77394 7.32422 3.74957 7.32422C3.7252 7.32422 3.70544 7.34397 3.70544 7.36834C3.70544 7.39271 3.7252 7.41247 3.74957 7.41247Z" fill="white"/>
<path d="M3.92608 7.41247C3.95045 7.41247 3.97021 7.39271 3.97021 7.36834C3.97021 7.34397 3.95045 7.32422 3.92608 7.32422C3.90171 7.32422 3.88196 7.34397 3.88196 7.36834C3.88196 7.39271 3.90171 7.41247 3.92608 7.41247Z" fill="white"/>
<path d="M3.74957 7.19177C3.77394 7.19177 3.79369 7.17201 3.79369 7.14764C3.79369 7.12327 3.77394 7.10352 3.74957 7.10352C3.7252 7.10352 3.70544 7.12327 3.70544 7.14764C3.70544 7.17201 3.7252 7.19177 3.74957 7.19177Z" fill="white"/>
<path d="M3.92608 7.19177C3.95045 7.19177 3.97021 7.17201 3.97021 7.14764C3.97021 7.12327 3.95045 7.10352 3.92608 7.10352C3.90171 7.10352 3.88196 7.12327 3.88196 7.14764C3.88196 7.17201 3.90171 7.19177 3.92608 7.19177Z" fill="white"/>
<path d="M4.27899 7.85387C4.30336 7.85387 4.32311 7.83412 4.32311 7.80975C4.32311 7.78538 4.30336 7.76562 4.27899 7.76562C4.25462 7.76562 4.23486 7.78538 4.23486 7.80975C4.23486 7.83412 4.25462 7.85387 4.27899 7.85387Z" fill="white"/>
<path d="M4.19073 7.96325C4.2151 7.96325 4.23486 7.94349 4.23486 7.91913C4.23486 7.89476 4.2151 7.875 4.19073 7.875C4.16636 7.875 4.14661 7.89476 4.14661 7.91913C4.14661 7.94349 4.16636 7.96325 4.19073 7.96325Z" fill="white"/>
<path d="M4.36724 7.96325C4.39161 7.96325 4.41137 7.94349 4.41137 7.91913C4.41137 7.89476 4.39161 7.875 4.36724 7.875C4.34288 7.875 4.32312 7.89476 4.32312 7.91913C4.32312 7.94349 4.34288 7.96325 4.36724 7.96325Z" fill="white"/>
<path d="M4.19073 7.74255C4.2151 7.74255 4.23486 7.72279 4.23486 7.69842C4.23486 7.67405 4.2151 7.6543 4.19073 7.6543C4.16636 7.6543 4.14661 7.67405 4.14661 7.69842C4.14661 7.72279 4.16636 7.74255 4.19073 7.74255Z" fill="white"/>
<path d="M4.36724 7.74255C4.39161 7.74255 4.41137 7.72279 4.41137 7.69842C4.41137 7.67405 4.39161 7.6543 4.36724 7.6543C4.34288 7.6543 4.32312 7.67405 4.32312 7.69842C4.32312 7.72279 4.34288 7.74255 4.36724 7.74255Z" fill="white"/>
<path d="M3.39654 7.85387C3.42091 7.85387 3.44067 7.83412 3.44067 7.80975C3.44067 7.78538 3.42091 7.76562 3.39654 7.76562C3.37217 7.76562 3.35242 7.78538 3.35242 7.80975C3.35242 7.83412 3.37217 7.85387 3.39654 7.85387Z" fill="white"/>
<path d="M3.30829 7.96325C3.33265 7.96325 3.35241 7.94349 3.35241 7.91913C3.35241 7.89476 3.33265 7.875 3.30829 7.875C3.28392 7.875 3.26416 7.89476 3.26416 7.91913C3.26416 7.94349 3.28392 7.96325 3.30829 7.96325Z" fill="white"/>
<path d="M3.4848 7.96325C3.50917 7.96325 3.52892 7.94349 3.52892 7.91913C3.52892 7.89476 3.50917 7.875 3.4848 7.875C3.46043 7.875 3.44067 7.89476 3.44067 7.91913C3.44067 7.94349 3.46043 7.96325 3.4848 7.96325Z" fill="white"/>
<path d="M3.30829 7.74255C3.33265 7.74255 3.35241 7.72279 3.35241 7.69842C3.35241 7.67405 3.33265 7.6543 3.30829 7.6543C3.28392 7.6543 3.26416 7.67405 3.26416 7.69842C3.26416 7.72279 3.28392 7.74255 3.30829 7.74255Z" fill="white"/>
<path d="M3.4848 7.74255C3.50917 7.74255 3.52892 7.72279 3.52892 7.69842C3.52892 7.67405 3.50917 7.6543 3.4848 7.6543C3.46043 7.6543 3.44067 7.67405 3.44067 7.69842C3.44067 7.72279 3.46043 7.74255 3.4848 7.74255Z" fill="white"/>
<path d="M3.83783 8.40466C3.8622 8.40466 3.88195 8.3849 3.88195 8.36053C3.88195 8.33616 3.8622 8.31641 3.83783 8.31641C3.81346 8.31641 3.7937 8.33616 3.7937 8.36053C3.7937 8.3849 3.81346 8.40466 3.83783 8.40466Z" fill="white"/>
<path d="M3.74957 8.51598C3.77394 8.51598 3.79369 8.49623 3.79369 8.47186C3.79369 8.44749 3.77394 8.42773 3.74957 8.42773C3.7252 8.42773 3.70544 8.44749 3.70544 8.47186C3.70544 8.49623 3.7252 8.51598 3.74957 8.51598Z" fill="white"/>
<path d="M3.92608 8.51598C3.95045 8.51598 3.97021 8.49623 3.97021 8.47186C3.97021 8.44749 3.95045 8.42773 3.92608 8.42773C3.90171 8.42773 3.88196 8.44749 3.88196 8.47186C3.88196 8.49623 3.90171 8.51598 3.92608 8.51598Z" fill="white"/>
<path d="M3.74957 8.29528C3.77394 8.29528 3.79369 8.27553 3.79369 8.25116C3.79369 8.22679 3.77394 8.20703 3.74957 8.20703C3.7252 8.20703 3.70544 8.22679 3.70544 8.25116C3.70544 8.27553 3.7252 8.29528 3.74957 8.29528Z" fill="white"/>
<path d="M3.92608 8.29528C3.95045 8.29528 3.97021 8.27553 3.97021 8.25116C3.97021 8.22679 3.95045 8.20703 3.92608 8.20703C3.90171 8.20703 3.88196 8.22679 3.88196 8.25116C3.88196 8.27553 3.90171 8.29528 3.92608 8.29528Z" fill="white"/>
<path d="M3.61719 6.72734H4.05844L4.01431 6.50672V6.28609H4.05844V6.17578H3.99225V6.24197H3.97019V6.17578H3.904V6.24197H3.85988V6.17578H3.81575V6.24197H3.77163V6.17578H3.70544V6.24197H3.66131V6.17578H3.61719V6.28609H3.66131V6.50672L3.61719 6.72734Z" fill="#FFE62E"/>
<path d="M3.90401 6.72778H3.88194V6.63953C3.88194 6.61747 3.85988 6.59541 3.83782 6.59541C3.81576 6.59541 3.79369 6.61747 3.79369 6.63953V6.72778H3.77163V6.63953C3.77163 6.59541 3.79369 6.57334 3.83782 6.57334C3.88194 6.57334 3.90401 6.59541 3.90401 6.63953V6.72778ZM3.83782 6.48509H3.70544V6.37478C3.70544 6.33066 3.72751 6.30859 3.77163 6.30859C3.81576 6.30859 3.83782 6.33066 3.83782 6.37478V6.48509ZM3.72751 6.46303H3.81576V6.37478C3.81576 6.35272 3.79369 6.33066 3.77163 6.33066C3.74957 6.33066 3.72751 6.35272 3.72751 6.37478V6.46303ZM3.97019 6.48509H3.83782V6.37478C3.83782 6.33066 3.85988 6.30859 3.90401 6.30859C3.94813 6.30859 3.97019 6.33066 3.97019 6.37478V6.48509ZM3.85988 6.46303H3.94813V6.37478C3.94813 6.35272 3.92607 6.33066 3.90401 6.33066C3.88194 6.33066 3.85988 6.35272 3.85988 6.37478V6.46303Z" fill="#3E4347"/>
<path d="M2.51404 6.72734H2.95529L2.91116 6.50672V6.28609H2.95529V6.17578H2.8891V6.24197H2.86704V6.17578H2.80085V6.24197H2.75673V6.17578H2.7126V6.24197H2.66848V6.17578H2.60229V6.24197H2.55816V6.17578H2.51404V6.28609H2.55816V6.50672L2.51404 6.72734Z" fill="#FFE62E"/>
<path d="M2.80086 6.72778H2.77879V6.63953C2.77879 6.61747 2.75673 6.59541 2.73467 6.59541C2.71261 6.59541 2.69055 6.61747 2.69055 6.63953V6.72778H2.66848V6.63953C2.66848 6.59541 2.69055 6.57334 2.73467 6.57334C2.7788 6.57334 2.80086 6.59541 2.80086 6.63953V6.72778ZM2.73467 6.48509H2.60229V6.37478C2.60229 6.33066 2.62436 6.30859 2.66848 6.30859C2.71261 6.30859 2.73467 6.33066 2.73467 6.37478V6.48509ZM2.62436 6.46303H2.71261V6.37478C2.71261 6.35272 2.69054 6.33066 2.66848 6.33066C2.64642 6.33066 2.62436 6.35272 2.62436 6.37478V6.46303Z" fill="#3E4347"/>
<path d="M2.86699 6.48509H2.73462V6.37478C2.73462 6.33066 2.75668 6.30859 2.80081 6.30859C2.84493 6.30859 2.86699 6.33066 2.86699 6.37478V6.48509ZM2.75668 6.46303H2.84493V6.37478C2.84493 6.35272 2.82287 6.33066 2.80081 6.33066C2.77874 6.33066 2.75668 6.35272 2.75668 6.37478V6.46303Z" fill="#3E4347"/>
<path d="M2.51404 8.03008H2.95529L2.91116 7.80945V7.58883H2.95529V7.47852H2.91116V7.5447H2.86704V7.47852H2.82291V7.5447H2.75673V7.47852H2.7126V7.5447H2.66848V7.47852H2.62435V7.5447H2.58023V7.47852H2.51404V7.58883H2.58023V7.80945L2.51404 8.03008Z" fill="#FFE62E"/>
<path d="M2.80086 8.03052H2.77879V7.94227C2.77879 7.9202 2.75673 7.89814 2.73467 7.89814C2.71261 7.89814 2.69055 7.9202 2.69055 7.94227V8.03052H2.66848V7.94227C2.66848 7.89814 2.69055 7.87608 2.73467 7.87608C2.7788 7.87608 2.80086 7.89814 2.80086 7.94227V8.03052ZM2.73467 7.78783H2.60229V7.67752C2.60229 7.63339 2.62436 7.61133 2.66848 7.61133C2.71261 7.61133 2.73467 7.63339 2.73467 7.67752V7.78783ZM2.62436 7.76577H2.71261V7.67752C2.71261 7.65545 2.69054 7.63339 2.66848 7.63339C2.64642 7.63339 2.62436 7.65545 2.62436 7.67752V7.76577ZM2.88911 7.78783H2.75673V7.67752C2.75673 7.63339 2.77879 7.61133 2.82292 7.61133C2.86704 7.61133 2.88911 7.63339 2.88911 7.67752V7.78783ZM2.77879 7.76577H2.86705V7.67752C2.86705 7.65545 2.84498 7.63339 2.82292 7.63339C2.80086 7.63339 2.77879 7.65545 2.77879 7.67752V7.76577Z" fill="#3E4347"/>
<path d="M4.72034 8.05294H5.16159L5.11746 7.83231V7.61169H5.16159V7.52344H5.0954V7.56756H5.07334V7.52344H5.00715V7.56756H4.96302V7.52344H4.9189V7.56756H4.87477V7.52344H4.80859V7.56756H4.76446V7.52344H4.72034V7.61169H4.76446V7.83231L4.72034 8.05294Z" fill="#FFE62E"/>
<path d="M5.00716 8.052H4.98509V7.96375C4.98509 7.94169 4.96303 7.91963 4.94097 7.91963C4.91891 7.91963 4.89684 7.94169 4.89684 7.96375V8.052H4.87478V7.96375C4.87478 7.91962 4.89684 7.89756 4.94097 7.89756C4.98509 7.89756 5.00716 7.91962 5.00716 7.96375V8.052ZM4.94097 7.80931H4.80859V7.699C4.80859 7.65488 4.83066 7.63281 4.87478 7.63281C4.91891 7.63281 4.94097 7.65488 4.94097 7.699V7.80931ZM4.83066 7.78725H4.91891V7.699C4.91891 7.67694 4.89684 7.65488 4.87478 7.65488C4.85272 7.65488 4.83066 7.67694 4.83066 7.699V7.78725ZM5.07334 7.80931H4.94097V7.699C4.94097 7.65488 4.96303 7.63281 5.00716 7.63281C5.05128 7.63281 5.07334 7.65488 5.07334 7.699V7.80931ZM4.96303 7.78725H5.05128V7.699C5.05128 7.67694 5.02922 7.65488 5.00716 7.65488C4.98509 7.65488 4.96303 7.67694 4.96303 7.699V7.78725Z" fill="#3E4347"/>
<path d="M4.72034 6.72734H5.16159L5.11746 6.50672V6.28609H5.16159V6.17578H5.0954V6.24197H5.07334V6.17578H5.00715V6.24197H4.96302V6.17578H4.9189V6.24197H4.87477V6.17578H4.80859V6.24197H4.76446V6.17578H4.72034V6.28609H4.76446V6.50672L4.72034 6.72734Z" fill="#FFE62E"/>
<path d="M5.00716 6.72778H4.98509V6.63953C4.98509 6.61747 4.96303 6.59541 4.94097 6.59541C4.91891 6.59541 4.89684 6.61747 4.89684 6.63953V6.72778H4.87478V6.63953C4.87478 6.59541 4.89684 6.57334 4.94097 6.57334C4.98509 6.57334 5.00716 6.59541 5.00716 6.63953V6.72778ZM4.94097 6.48509H4.80859V6.37478C4.80859 6.33066 4.83066 6.30859 4.87478 6.30859C4.91891 6.30859 4.94097 6.33066 4.94097 6.37478V6.48509ZM4.83066 6.46303H4.91891V6.37478C4.91891 6.35272 4.89684 6.33066 4.87478 6.33066C4.85272 6.33066 4.83066 6.35272 4.83066 6.37478V6.46303ZM5.07334 6.48509H4.94097V6.37478C4.94097 6.33066 4.96303 6.30859 5.00716 6.30859C5.05128 6.30859 5.07334 6.33066 5.07334 6.37478V6.48509ZM4.96303 6.46303H5.05128V6.37478C5.05128 6.35272 5.02922 6.33066 5.00716 6.33066C4.98509 6.33066 4.96303 6.35272 4.96303 6.37478V6.46303Z" fill="#3E4347"/>
<path d="M3.22003 9.28803L3.52891 8.95709L3.33035 8.84678L3.17591 8.69234L3.22003 8.64822L3.15385 8.58203L3.10972 8.62616L3.15385 8.67028L3.13178 8.69234L3.08766 8.64822L3.04353 8.69234L3.08766 8.71441L3.04353 8.75853L3.02147 8.71441L2.97735 8.75853L3.02147 8.80266L2.97735 8.82472L2.95528 8.78059L2.91116 8.82472L2.93322 8.86884L2.91116 8.89091L2.8891 8.84678L2.84497 8.89091L2.91116 8.95709H2.93322L2.95528 8.93503L3.10972 9.08947L3.22003 9.28803Z" fill="#FFE62E"/>
<path d="M3.41859 9.06703L3.33034 9.02291C3.30827 9.00084 3.28621 9.00084 3.26415 9.02291C3.24209 9.04497 3.24209 9.06703 3.26415 9.08909L3.33034 9.15528L3.30827 9.17734L3.24209 9.11116C3.22002 9.08909 3.22002 9.04497 3.24209 9.02291C3.26415 9.00084 3.30827 9.00084 3.33034 9.02291L3.41859 9.06703ZM3.19796 8.95672L3.10971 9.04497L3.04352 8.97878C3.02146 8.95672 3.02146 8.91259 3.04352 8.89053C3.06559 8.86847 3.10971 8.86847 3.13177 8.89053L3.19796 8.95672ZM3.10971 9.02291L3.1759 8.95672L3.10971 8.89053C3.08765 8.86847 3.06559 8.86847 3.04352 8.89053C3.02146 8.91259 3.02146 8.93466 3.04352 8.95672L3.10971 9.02291ZM3.30827 8.84641L3.22002 8.93466L3.15384 8.86847C3.13177 8.84641 3.13177 8.80228 3.15384 8.78022C3.1759 8.75816 3.22002 8.75816 3.24209 8.78022L3.30827 8.84641ZM3.22002 8.91259L3.28621 8.84641L3.22002 8.78022C3.19796 8.75816 3.1759 8.75816 3.15384 8.78022C3.13177 8.80228 3.13177 8.82434 3.15384 8.84641L3.22002 8.91259Z" fill="#3E4347"/>
<path d="M4.45548 9.28803L4.14661 8.95709L4.32311 8.84678L4.47754 8.69234L4.45548 8.64822L4.52167 8.58203L4.56579 8.62616L4.52167 8.67028L4.54373 8.69234L4.58786 8.64822L4.63198 8.69234L4.58786 8.71441L4.63198 8.75853L4.65404 8.71441L4.69817 8.75853L4.65404 8.80266L4.69817 8.82472L4.72023 8.78059L4.76436 8.82472L4.72023 8.86884L4.76436 8.89091L4.78642 8.84678L4.83054 8.89091L4.76436 8.95709H4.74229L4.72023 8.93503L4.56579 9.08947L4.45548 9.28803Z" fill="#FFE62E"/>
<path d="M4.25696 9.06703L4.34521 9.02291C4.36727 9.00084 4.38933 9.00084 4.4114 9.02291C4.43346 9.04497 4.43346 9.06703 4.4114 9.08909L4.32315 9.15528L4.34521 9.17734L4.4114 9.11116C4.43346 9.08909 4.43346 9.04497 4.4114 9.02291C4.38933 9.00084 4.34521 9.00084 4.32315 9.02291L4.25696 9.06703ZM4.54377 8.89053C4.56583 8.86847 4.60996 8.86847 4.63202 8.89053C4.65408 8.91259 4.65408 8.95672 4.63202 8.97878L4.56583 9.04497L4.47758 8.95672L4.54377 8.89053ZM4.60996 8.95672C4.63202 8.93466 4.63202 8.91259 4.60996 8.89053C4.5879 8.86847 4.56583 8.86847 4.54377 8.89053L4.49965 8.95672L4.56583 9.02291L4.60996 8.95672ZM4.43346 8.78022C4.45552 8.75816 4.49965 8.75816 4.52171 8.78022C4.54377 8.80228 4.54377 8.84641 4.52171 8.86847L4.45552 8.93466L4.36727 8.84641L4.43346 8.78022ZM4.52171 8.84641C4.54377 8.82434 4.54377 8.80228 4.52171 8.78022C4.49965 8.75816 4.47758 8.75816 4.45552 8.78022L4.38933 8.84641L4.45552 8.91259L4.52171 8.84641Z" fill="#3E4347"/>
</svg>
