<svg width="14" height="12" viewBox="0 0 14 12" fill="none" xmlns="http://www.w3.org/2000/svg">
<path d="M13.8107 2.08139C13.3312 2.29383 12.8162 2.43738 12.2748 2.50226C12.8334 2.16797 13.2514 1.64184 13.4507 1.02203C12.9258 1.3338 12.3513 1.55326 11.7523 1.67085C11.3494 1.24072 10.8158 0.955616 10.2343 0.859813C9.65283 0.764011 9.05598 0.862866 8.53643 1.14103C8.01689 1.4192 7.60371 1.86111 7.36105 2.39816C7.11839 2.93521 7.05982 3.53735 7.19445 4.1111C6.13089 4.0577 5.09045 3.78126 4.14065 3.29973C3.19085 2.81821 2.3529 2.14234 1.68121 1.31601C1.45154 1.71219 1.31948 2.17153 1.31948 2.66073C1.31922 3.10112 1.42767 3.53477 1.63521 3.92319C1.84274 4.31162 2.14294 4.64281 2.50917 4.88739C2.08444 4.87387 1.66908 4.75911 1.29766 4.55264V4.58709C1.29762 5.20476 1.51127 5.80341 1.90237 6.28148C2.29347 6.75955 2.83793 7.08759 3.44336 7.20993C3.04935 7.31656 2.63626 7.33227 2.23529 7.25586C2.40611 7.78733 2.73884 8.25207 3.18691 8.58504C3.63498 8.918 4.17596 9.10252 4.7341 9.11275C3.78662 9.85654 2.61648 10.26 1.41192 10.2582C1.19855 10.2583 0.985352 10.2458 0.773438 10.2209C1.99613 11.0071 3.41944 11.4243 4.87305 11.4227C9.79374 11.4227 12.4838 7.34716 12.4838 3.81253C12.4838 3.69769 12.4809 3.58171 12.4757 3.46687C12.999 3.08848 13.4506 2.6199 13.8095 2.08311L13.8107 2.08139Z" fill="white"/>
</svg>
